<?xml version="1.0" encoding="utf-8"?>
<!-- Generator: Adobe Illustrator 15.1.0, SVG Export Plug-In . SVG Version: 6.00 Build 0)  -->
<!DOCTYPE svg PUBLIC "-//W3C//DTD SVG 1.1//EN" "http://www.w3.org/Graphics/SVG/1.1/DTD/svg11.dtd">
<svg version="1.1" id="Layer_1" xmlns="http://www.w3.org/2000/svg" xmlns:xlink="http://www.w3.org/1999/xlink" x="0px" y="0px"
	 width="1091.6px" height="100px" viewBox="0 0 1091.6 100" enable-background="new 0 0 1091.6 100" xml:space="preserve">
<g>
	<polygon fill="#FFFFFF" points="81.467,25.6 80.407,25.6 80.407,53.898 55.801,53.898 55.801,55.1 80.407,55.1 80.407,83.299 
		81.467,83.299 81.467,55.1 105.067,55.1 105.067,53.898 81.467,53.898 	"/>
	<polygon fill="#FFFFFF" points="81.467,25.6 80.407,25.6 80.407,53.898 55.801,53.898 55.801,55.1 80.407,55.1 80.407,83.299 
		81.467,83.299 81.467,55.1 105.067,55.1 105.067,53.898 81.467,53.898 	"/>
	<path fill="#FFFFFF" d="M154.533,73.6c-13.686,0-21.037-11.102-21.037-23.8c0-12.7,7.351-23.5,21.037-23.5
		c6.278,0,12.019,2.8,15.905,5.8l5.218-17.5c-5.37-4-12.468-6.8-21.678-6.8c-23.146,0-39.253,18.4-39.253,42.301
		c0,24,15.299,42.5,39.253,42.5c9.21,0,16.757-2.9,21.943-6.802l-5.182-17.5C166.814,70.699,160.812,73.6,154.533,73.6z"/>
	<path fill="#FFFFFF" d="M154.533,73.6c-13.686,0-21.037-11.102-21.037-23.8c0-12.7,7.351-23.5,21.037-23.5
		c6.278,0,12.019,2.8,15.905,5.8l5.218-17.5c-5.37-4-12.468-6.8-21.678-6.8c-23.146,0-39.253,18.4-39.253,42.301
		c0,24,15.299,42.5,39.253,42.5c9.21,0,16.757-2.9,21.943-6.802l-5.182-17.5C166.814,70.699,160.812,73.6,154.533,73.6z"/>
	<path fill="#FFFFFF" d="M222.554,7.499c-23.487,0-39.082,18.5-39.082,42.3c0,24,15.598,42.5,39.082,42.5
		c23.472,0,39.067-18.5,39.067-42.5C261.523,26.1,246.027,7.499,222.554,7.499z M222.554,73.6c-11.857,0-20.059-10-20.059-23.8
		c0-13.4,8.112-23.5,20.059-23.5c11.943,0,20.045,10.1,20.045,23.5C242.669,63.6,234.397,73.6,222.554,73.6z"/>
	<path fill="#FFFFFF" d="M222.554,7.499c-23.487,0-39.082,18.5-39.082,42.3c0,24,15.598,42.5,39.082,42.5
		c23.472,0,39.067-18.5,39.067-42.5C261.523,26.1,246.027,7.499,222.554,7.499z M222.554,73.6c-11.857,0-20.059-10-20.059-23.8
		c0-13.4,8.112-23.5,20.059-23.5c11.943,0,20.045,10.1,20.045,23.5C242.669,63.6,234.397,73.6,222.554,73.6z"/>
	<polygon fill="#FFFFFF" points="318.439,59.699 291.414,9.199 273.35,9.199 273.35,90.398 290.56,90.398 290.56,40.6 
		318.338,90.398 336.656,90.398 336.656,9.199 318.439,9.199 	"/>
	<polygon fill="#FFFFFF" points="318.439,59.699 291.414,9.199 273.35,9.199 273.35,90.398 290.56,90.398 290.56,40.6 
		318.338,90.398 336.656,90.398 336.656,9.199 318.439,9.199 	"/>
	<polygon fill="#FFFFFF" points="396.689,9.199 347.422,9.199 347.422,26.799 363.427,26.799 363.427,90.398 380.639,90.398 
		380.639,26.799 396.689,26.799 	"/>
	<polygon fill="#FFFFFF" points="396.689,9.199 347.422,9.199 347.422,26.799 363.427,26.799 363.427,90.398 380.639,90.398 
		380.639,26.799 396.689,26.799 	"/>
	<path fill="#FFFFFF" d="M421.249,9.199l-25.766,81.199h18.216l5.383-17.699h23.4l5.381,17.699h18.217L440.283,9.199
		C440.372,9.199,421.249,9.199,421.249,9.199z M423.816,56.299l6.994-25.9l7.041,25.9H423.816z"/>
	<path fill="#FFFFFF" d="M421.249,9.199l-25.766,81.199h18.216l5.383-17.699h23.4l5.381,17.699h18.217L440.283,9.199
		C440.372,9.199,421.249,9.199,421.249,9.199z M423.816,56.299l6.994-25.9l7.041,25.9H423.816z"/>
	<path fill="#FFFFFF" d="M509.515,73.6c-13.686,0-21.035-11.102-21.035-23.8c0-12.7,7.35-23.5,21.035-23.5
		c6.29,0,12.027,2.8,15.924,5.8l5.211-17.5c-5.382-4-12.48-6.8-21.688-6.8c-23.148,0-39.255,18.4-39.255,42.301
		c0,24,15.299,42.5,39.255,42.5c9.208,0,16.755-2.9,21.941-6.802l-5.083-17.801C521.795,70.699,515.806,73.6,509.515,73.6z"/>
	<path fill="#FFFFFF" d="M509.515,73.6c-13.686,0-21.035-11.102-21.035-23.8c0-12.7,7.35-23.5,21.035-23.5
		c6.29,0,12.027,2.8,15.924,5.8l5.211-17.5c-5.382-4-12.48-6.8-21.688-6.8c-23.148,0-39.255,18.4-39.255,42.301
		c0,24,15.299,42.5,39.255,42.5c9.208,0,16.755-2.9,21.941-6.802l-5.083-17.801C521.795,70.699,515.806,73.6,509.515,73.6z"/>
	<polygon fill="#FFFFFF" points="538.199,26.799 553.197,26.799 553.197,90.398 571.414,90.398 571.414,26.799 587.521,26.799 
		587.521,9.199 538.199,9.199 	"/>
	<polygon fill="#FFFFFF" points="538.199,26.799 553.197,26.799 553.197,90.398 571.414,90.398 571.414,26.799 587.521,26.799 
		587.521,9.199 538.199,9.199 	"/>
	<polygon fill="#FFFFFF" points="626.772,8.899 600.198,90.799 601.407,90.799 627.978,8.899 	"/>
	<polygon fill="#FFFFFF" points="626.772,8.899 600.198,90.799 601.407,90.799 627.978,8.899 	"/>
	<path fill="#FFFFFF" d="M677.597,90.998c-19.318,0-35.527-17.199-35.527-41.199C642.07,25.8,658.279,8.6,677.597,8.6
		c12.583,0,20.429,6.7,22.946,9.3l0.788-0.8c-2.917-3.1-11.055-9.7-23.734-9.7c-20.334,0-36.533,18.2-36.533,42.399
		c0,24.199,16.254,42.4,36.533,42.4c13.188,0,20.728-6.5,24.054-9.701l-0.707-0.799C698.326,84.299,690.577,90.998,677.597,90.998z"
		/>
	<path fill="#FFFFFF" d="M677.597,90.998c-19.318,0-35.527-17.199-35.527-41.199C642.07,25.8,658.279,8.6,677.597,8.6
		c12.583,0,20.429,6.7,22.946,9.3l0.788-0.8c-2.917-3.1-11.055-9.7-23.734-9.7c-20.334,0-36.533,18.2-36.533,42.399
		c0,24.199,16.254,42.4,36.533,42.4c13.188,0,20.728-6.5,24.054-9.701l-0.707-0.799C698.326,84.299,690.577,90.998,677.597,90.998z"
		/>
	<path fill="#FFFFFF" d="M741.103,9.199l-29.081,81.199h1.301l11.871-33h33.119l11.872,33h1.213L742.41,9.199
		C742.309,9.199,741.103,9.199,741.103,9.199z M725.506,56.299l16.106-45.4l16.203,45.4H725.506z"/>
	<path fill="#FFFFFF" d="M741.103,9.199l-29.081,81.199h1.301l11.871-33h33.119l11.872,33h1.213L742.41,9.199
		C742.309,9.199,741.103,9.199,741.103,9.199z M725.506,56.299l16.106-45.4l16.203,45.4H725.506z"/>
	<path fill="#FFFFFF" d="M820.814,29.999c0-12-7.646-20.8-20.952-20.8h-15.075v81.199h1.105v-38.9h12.28
		c3.519,0,6.237-1.099,6.237-1.099l19.529,39.9h1.307l-19.831-40.4C812.349,48.299,820.814,43.1,820.814,29.999z M798.172,49.2
		h-12.28V10.3h13.97c12.515,0,19.848,8.1,19.848,19.4C819.707,41.699,811.364,49.2,798.172,49.2z"/>
	<path fill="#FFFFFF" d="M820.814,29.999c0-12-7.646-20.8-20.952-20.8h-15.075v81.199h1.105v-38.9h12.28
		c3.519,0,6.237-1.099,6.237-1.099l19.529,39.9h1.307l-19.831-40.4C812.349,48.299,820.814,43.1,820.814,29.999z M798.172,49.2
		h-12.28V10.3h13.97c12.515,0,19.848,8.1,19.848,19.4C819.707,41.699,811.364,49.2,798.172,49.2z"/>
	<polygon fill="#FFFFFF" points="841.651,49.2 868.421,49.2 868.421,47.999 841.651,47.999 841.651,10.299 872.755,10.299 
		872.755,9.199 840.542,9.199 840.542,90.398 873.758,90.398 873.758,89.199 841.651,89.199 	"/>
	<polygon fill="#FFFFFF" points="841.651,49.2 868.421,49.2 868.421,47.999 841.651,47.999 841.651,10.299 872.755,10.299 
		872.755,9.199 840.542,9.199 840.542,90.398 873.758,90.398 873.758,89.199 841.651,89.199 	"/>
	<polygon fill="#FFFFFF" points="893.083,49.2 920.96,49.2 920.96,47.999 893.083,47.999 893.083,10.299 924.27,10.299 
		924.27,9.199 891.975,9.199 891.975,90.398 925.277,90.398 925.277,89.199 893.083,89.199 	"/>
	<polygon fill="#FFFFFF" points="893.083,49.2 920.96,49.2 920.96,47.999 893.083,47.999 893.083,10.299 924.27,10.299 
		924.27,9.199 891.975,9.199 891.975,90.398 925.277,90.398 925.277,89.199 893.083,89.199 	"/>
	<path fill="#FFFFFF" d="M979.337,29.999c0-12-7.649-20.8-20.936-20.8h-14.97v81.199h1.083v-38.9h12.271
		c3.429,0,6.147-1.099,6.147-1.099l19.623,39.9h1.208l-19.828-40.4C970.779,48.299,979.337,43.1,979.337,29.999z M956.785,49.2
		h-12.271V10.3H958.4c12.581,0,19.831,8.1,19.831,19.4C978.231,41.699,969.973,49.2,956.785,49.2z"/>
	<path fill="#FFFFFF" d="M979.337,29.999c0-12-7.649-20.8-20.936-20.8h-14.97v81.199h1.083v-38.9h12.271
		c3.429,0,6.147-1.099,6.147-1.099l19.623,39.9h1.208l-19.828-40.4C970.779,48.299,979.337,43.1,979.337,29.999z M956.785,49.2
		h-12.271V10.3H958.4c12.581,0,19.831,8.1,19.831,19.4C978.231,41.699,969.973,49.2,956.785,49.2z"/>
	<path fill="#FFFFFF" d="M997.853,25.999c0-9.4,6.444-17.3,17.519-17.3c10.468,0,15.304,7.1,17.311,11.8l1.007-0.5
		c-2.209-5.1-7.053-12.5-18.217-12.5c-11.783,0-18.624,8.1-18.624,18.4c0,25.8,37.946,18.2,37.946,45.701
		c0,12.398-8.059,19.299-18.823,19.299c-11.674,0-17.311-7.1-20.329-15.5l-1.007,0.4c3.019,8.5,8.655,16.398,21.235,16.398
		c11.672,0,19.93-7.898,19.93-20.5C1035.8,43.399,997.853,50.6,997.853,25.999z"/>
	<path fill="#FFFFFF" d="M997.853,25.999c0-9.4,6.444-17.3,17.519-17.3c10.468,0,15.304,7.1,17.311,11.8l1.007-0.5
		c-2.209-5.1-7.053-12.5-18.217-12.5c-11.783,0-18.624,8.1-18.624,18.4c0,25.8,37.946,18.2,37.946,45.701
		c0,12.398-8.059,19.299-18.823,19.299c-11.674,0-17.311-7.1-20.329-15.5l-1.007,0.4c3.019,8.5,8.655,16.398,21.235,16.398
		c11.672,0,19.93-7.898,19.93-20.5C1035.8,43.399,997.853,50.6,997.853,25.999z"/>
</g>
</svg>
