<?xml version="1.0" encoding="utf-8"?>
<!-- Generator: Adobe Illustrator 15.1.0, SVG Export Plug-In . SVG Version: 6.00 Build 0)  -->
<!DOCTYPE svg PUBLIC "-//W3C//DTD SVG 1.1//EN" "http://www.w3.org/Graphics/SVG/1.1/DTD/svg11.dtd">
<svg version="1.1" id="Layer_1" xmlns="http://www.w3.org/2000/svg" xmlns:xlink="http://www.w3.org/1999/xlink" x="0px" y="0px"
	 width="1000px" height="100px" viewBox="0 0 1000 100" enable-background="new 0 0 1000 100" xml:space="preserve">
<g>
	<polygon fill="#333333" stroke="#FFFFFF" stroke-miterlimit="10" points="40.9,25.9 39.9,25.9 39.9,53.9 13.9,53.9 13.9,54.9 
		39.9,54.9 39.9,82.9 40.9,82.9 40.9,54.9 67.9,54.9 67.9,53.9 40.9,53.9 	"/>
	
		<linearGradient id="SVGID_1_" gradientUnits="userSpaceOnUse" x1="3762.5491" y1="-10693.2422" x2="4533.1963" y2="-9922.5947" gradientTransform="matrix(-1 0 0 1 4472.3911 10078.1992)">
		<stop  offset="0" style="stop-color:#0D0D0D"/>
		<stop  offset="1" style="stop-color:#333333"/>
	</linearGradient>
	<polygon fill="url(#SVGID_1_)" stroke="#FFFFFF" stroke-miterlimit="10" points="40.9,25.9 39.9,25.9 39.9,53.9 13.9,53.9 
		13.9,54.9 39.9,54.9 39.9,82.9 40.9,82.9 40.9,54.9 67.9,54.9 67.9,53.9 40.9,53.9 	"/>
	<polygon fill="#333333" stroke="#FFFFFF" stroke-miterlimit="10" points="102.9,90.9 104.9,90.9 104.9,9.9 129.9,9.9 129.9,8.9 
		77.9,8.9 77.9,9.9 102.9,9.9 	"/>
	<polygon fill="#FFFFFF" stroke="#FFFFFF" stroke-miterlimit="10" points="102.9,90.9 104.9,90.9 104.9,9.9 129.9,9.9 129.9,8.9 
		77.9,8.9 77.9,9.9 102.9,9.9 	"/>
	<polygon fill="#333333" stroke="#FFFFFF" stroke-miterlimit="10" points="201.9,90.9 202.9,90.9 202.9,8.9 201.9,8.9 201.9,47.9 
		146.9,47.9 146.9,8.9 145.9,8.9 145.9,90.9 146.9,90.9 146.9,48.9 201.9,48.9 	"/>
	
		<linearGradient id="SVGID_2_" gradientUnits="userSpaceOnUse" x1="3696.012" y1="-10630.2793" x2="4468.6318" y2="-9857.6602" gradientTransform="matrix(-1 0 0 1 4472.3911 10078.1992)">
		<stop  offset="0" style="stop-color:#0D0D0D"/>
		<stop  offset="1" style="stop-color:#333333"/>
	</linearGradient>
	<polygon fill="url(#SVGID_2_)" stroke="#FFFFFF" stroke-miterlimit="10" points="201.9,90.9 202.9,90.9 202.9,8.9 201.9,8.9 
		201.9,47.9 146.9,47.9 146.9,8.9 145.9,8.9 145.9,90.9 146.9,90.9 146.9,48.9 201.9,48.9 	"/>
	<polygon fill="#333333" stroke="#FFFFFF" stroke-miterlimit="10" points="261.9,9.9 261.9,8.9 226.9,8.9 226.9,90.9 263.9,90.9 
		263.9,89.9 228.9,89.9 228.9,48.9 258.9,48.9 258.9,47.9 228.9,47.9 228.9,9.9 	"/>
	<polygon fill="#FFFFFF" stroke="#FFFFFF" stroke-miterlimit="10" points="261.9,9.9 261.9,8.9 226.9,8.9 226.9,90.9 263.9,90.9 
		263.9,89.9 228.9,89.9 228.9,48.9 258.9,48.9 258.9,47.9 228.9,47.9 228.9,9.9 	"/>
	<polygon fill="#333333" stroke="#FFFFFF" stroke-miterlimit="10" points="367.4,90.9 388.7,8.9 367.3,8.9 354.9,66.7 340.5,8.9 
		322.5,8.9 308.1,66.7 295.7,8.9 274.2,8.9 295.5,90.9 318.2,90.9 331.5,39.4 344.7,90.9 	"/>
	<polygon fill="#FFFFFF" stroke="#FFFFFF" stroke-miterlimit="10" points="367.4,90.9 388.7,8.9 367.3,8.9 354.9,66.7 340.5,8.9 
		322.5,8.9 308.1,66.7 295.7,8.9 274.2,8.9 295.5,90.9 318.2,90.9 331.5,39.4 344.7,90.9 	"/>
	<path fill="#333333" stroke="#FFFFFF" stroke-miterlimit="10" d="M438.1,7.5c-25.9,0-43,18.6-43,42.4c0,24.1,17.1,42.6,43,42.6
		s43-18.5,43-42.6C481.1,26.1,464,7.5,438.1,7.5z M438.1,73.8c-13,0-22.1-10.1-22.1-23.9c0-13.5,9-23.7,22.1-23.7
		s22.1,10.2,22.1,23.7C460.3,63.7,451.1,73.8,438.1,73.8z"/>
	<path fill="#FFFFFF" stroke="#FFFFFF" stroke-miterlimit="10" d="M438.1,7.5c-25.9,0-43,18.6-43,42.4c0,24.1,17.1,42.6,43,42.6
		s43-18.5,43-42.6C481.1,26.1,464,7.5,438.1,7.5z M438.1,73.8c-13,0-22.1-10.1-22.1-23.9c0-13.5,9-23.7,22.1-23.7
		s22.1,10.2,22.1,23.7C460.3,63.7,451.1,73.8,438.1,73.8z"/>
	<path fill="#333333" stroke="#FFFFFF" stroke-miterlimit="10" d="M549.199,34.2C549.199,17.9,539.8,9,520.5,9h-26.7v82h20V61h6.1
		l14.6,30H556.6c-18.601-35-18.8-35.1-18.8-35.1l0,0l0,0C545.4,51.7,549.199,43.2,549.199,34.2z M519.9,43.9h-6v-18h5
		c7.3,0,9.8,3.4,9.8,8.8C528.699,40.4,525.4,43.9,519.9,43.9z"/>
	<path fill="#FFFFFF" stroke="#FFFFFF" stroke-miterlimit="10" d="M549.199,34.2C549.199,17.9,539.8,9,520.5,9h-26.7v82h20V61h6.1
		l14.6,30H556.6c-18.601-35-18.8-35.1-18.8-35.1l0,0l0,0C545.4,51.7,549.199,43.2,549.199,34.2z M519.9,43.9h-6v-18h5
		c7.3,0,9.8,3.4,9.8,8.8C528.699,40.4,525.4,43.9,519.9,43.9z"/>
	<polygon fill="#333333" stroke="#FFFFFF" stroke-miterlimit="10" points="566.9,8.9 566.9,90.9 586.9,90.9 586.9,58 610.9,90.9 
		633.9,90.9 602.6,48.2 633.3,8.9 610.9,8.9 586.9,40.6 586.9,8.9 	"/>
	<polygon fill="#FFFFFF" stroke="#FFFFFF" stroke-miterlimit="10" points="566.9,8.9 566.9,90.9 586.9,90.9 586.9,58 610.9,90.9 
		633.9,90.9 602.6,48.2 633.3,8.9 610.9,8.9 586.9,40.6 586.9,8.9 	"/>
</g>
</svg>
