<?xml version="1.0" encoding="utf-8"?>
<!-- Generator: Adobe Illustrator 19.1.0, SVG Export Plug-In . SVG Version: 6.00 Build 0)  -->
<!DOCTYPE svg PUBLIC "-//W3C//DTD SVG 1.1//EN" "http://www.w3.org/Graphics/SVG/1.1/DTD/svg11.dtd">
<svg version="1.1" id="Layer_1" xmlns="http://www.w3.org/2000/svg" xmlns:xlink="http://www.w3.org/1999/xlink" x="0px" y="0px"
	 width="826px" height="142px" viewBox="0 0 826 142" style="enable-background:new 0 0 826 142;" xml:space="preserve">
<style type="text/css">
	.st0{fill:#333333;}
	.st1{fill:url(#SVGID_1_);}
	.st2{fill:url(#SVGID_2_);}
	.st3{fill:url(#SVGID_3_);}
	.st4{fill:url(#SVGID_4_);}
	.st5{fill:url(#SVGID_5_);}
	.st6{fill:url(#SVGID_6_);}
	.st7{fill:url(#SVGID_7_);}
	.st8{fill:url(#SVGID_8_);}
	.st9{fill:url(#SVGID_9_);}
	.st10{fill:url(#SVGID_10_);}
	.st11{fill:url(#SVGID_11_);}
	.st12{fill:#FFFFFF;}
	.st13{fill:url(#SVGID_12_);}
	.st14{fill:url(#SVGID_13_);}
	.st15{fill:url(#SVGID_14_);}
	.st16{fill:url(#SVGID_15_);}
	.st17{fill:url(#SVGID_16_);}
	.st18{fill:url(#SVGID_17_);}
	.st19{fill:url(#SVGID_18_);}
	.st20{fill:url(#SVGID_19_);}
	.st21{fill:url(#SVGID_20_);}
	.st22{fill:url(#SVGID_21_);}
	.st23{fill:url(#SVGID_22_);}
	.st24{fill:url(#SVGID_23_);}
	.st25{fill:url(#SVGID_24_);}
	.st26{fill:url(#SVGID_25_);}
	.st27{fill:url(#SVGID_26_);}
	.st28{fill:url(#SVGID_27_);}
	.st29{fill:url(#SVGID_28_);}
	.st30{fill:url(#SVGID_29_);}
	.st31{fill:url(#SVGID_30_);}
	.st32{fill:url(#SVGID_31_);}
	.st33{fill:url(#SVGID_32_);}
	.st34{fill:url(#SVGID_33_);}
	.st35{fill:#36D397;}
	.st36{fill:url(#SVGID_34_);}
</style>
<g>
	<path class="st0" d="M0,75.1h27.1V46.4h1.2v28.7h27v1.2h-27v28.6h-1.2V76.3H0V75.1z"/>
	<path class="st0" d="M90.5,95h26.4l6,18h20.6l-29-84H92.9l-29,84h20.6L90.5,95z M103.7,51.4l7.9,26.6H95.8L103.7,51.4z"/>
	
		<linearGradient id="SVGID_1_" gradientUnits="userSpaceOnUse" x1="286.5026" y1="673.4829" x2="954.9755" y2="5.01" gradientTransform="matrix(-1 0 0 1 978.1432 0)">
		<stop  offset="0" style="stop-color:#0D0D0D"/>
		<stop  offset="1" style="stop-color:#4D4D4D"/>
	</linearGradient>
	<path class="st1" d="M90.5,95h26.4l6,18h20.6l-29-84H92.9l-29,84h20.6L90.5,95z M103.7,51.4l7.9,26.6H95.8L103.7,51.4z"/>
	<path class="st0" d="M214,87.9c0-8.6-3.5-15.5-11.8-19c5.8-3.2,9.1-10.2,9.1-17.4c0-14.4-10.2-22.6-27.2-22.6H154v84h31
		C201.1,113,214,105,214,87.9z M175,47h8c5,0,7.4,2.9,7.4,7.3c0,4.6-2.5,7.7-7.2,7.7H175V47z M175,96V79h9.6c5.4,0,8.3,3.4,8.3,8.4
		c0,4.8-3,8.6-8.4,8.6H175z"/>
	
		<linearGradient id="SVGID_2_" gradientUnits="userSpaceOnUse" x1="242.6944" y1="630.2775" x2="911.5532" y2="-38.5813" gradientTransform="matrix(-1 0 0 1 978.1432 0)">
		<stop  offset="0" style="stop-color:#0D0D0D"/>
		<stop  offset="1" style="stop-color:#4D4D4D"/>
	</linearGradient>
	<path class="st2" d="M214,87.9c0-8.6-3.5-15.5-11.8-19c5.8-3.2,9.1-10.2,9.1-17.4c0-14.4-10.2-22.6-27.2-22.6H154v84h31
		C201.1,113,214,105,214,87.9z M175,47h8c5,0,7.4,2.9,7.4,7.3c0,4.6-2.5,7.7-7.2,7.7H175V47z M175,96V79h9.6c5.4,0,8.3,3.4,8.3,8.4
		c0,4.8-3,8.6-8.4,8.6H175z"/>
	<path class="st0" d="M266.8,114.5c26.5,0,44-19,44-43.7c0-24.4-17.5-43.4-44-43.4c-26.5,0-44,19.1-44,43.4
		C222.7,95.6,240.2,114.5,266.8,114.5z M266.8,46.6c13.4,0,22.7,10.4,22.7,24.2c0,14.2-9.4,24.5-22.7,24.5S244.1,85,244.1,70.9
		C244.1,57.1,253.3,46.6,266.8,46.6z"/>
	
		<linearGradient id="SVGID_3_" gradientUnits="userSpaceOnUse" x1="197.7229" y1="584.6633" x2="866.1788" y2="-83.7926" gradientTransform="matrix(-1 0 0 1 978.1432 0)">
		<stop  offset="0" style="stop-color:#0D0D0D"/>
		<stop  offset="1" style="stop-color:#4D4D4D"/>
	</linearGradient>
	<path class="st3" d="M266.8,114.5c26.5,0,44-19,44-43.7c0-24.4-17.5-43.4-44-43.4c-26.5,0-44,19.1-44,43.4
		C222.7,95.6,240.2,114.5,266.8,114.5z M266.8,46.6c13.4,0,22.7,10.4,22.7,24.2c0,14.2-9.4,24.5-22.7,24.5S244.1,85,244.1,70.9
		C244.1,57.1,253.3,46.6,266.8,46.6z"/>
	<path class="st0" d="M359,114.4c22.2,0,35-14.2,35-33.8V29h-21v51.6c0,9.2-5.1,14.9-14.4,14.9c-9.1,0-14.6-5.6-14.6-14.8V29h-20
		v51.7C324,100.7,336.4,114.4,359,114.4z"/>
	
		<linearGradient id="SVGID_4_" gradientUnits="userSpaceOnUse" x1="147.4185" y1="534.2466" x2="815.5549" y2="-133.8898" gradientTransform="matrix(-1 0 0 1 978.1432 0)">
		<stop  offset="0" style="stop-color:#0D0D0D"/>
		<stop  offset="1" style="stop-color:#4D4D4D"/>
	</linearGradient>
	<path class="st4" d="M359,114.4c22.2,0,35-14.2,35-33.8V29h-21v51.6c0,9.2-5.1,14.9-14.4,14.9c-9.1,0-14.6-5.6-14.6-14.8V29h-20
		v51.7C324,100.7,336.4,114.4,359,114.4z"/>
	<polygon class="st0" points="424,113 444,113 444,48 462,48 462,29 406,29 406,48 424,48 	"/>
	
		<linearGradient id="SVGID_5_" gradientUnits="userSpaceOnUse" x1="111.8014" y1="494.3418" x2="776.8" y2="-170.6567" gradientTransform="matrix(-1 0 0 1 978.1432 0)">
		<stop  offset="0" style="stop-color:#0D0D0D"/>
		<stop  offset="1" style="stop-color:#4D4D4D"/>
	</linearGradient>
	<polygon class="st5" points="424,113 444,113 444,48 462,48 462,29 406,29 406,48 424,48 	"/>
	<rect x="478" y="29" class="st0" width="2" height="84"/>
	
		<linearGradient id="SVGID_6_" gradientUnits="userSpaceOnUse" x1="87.6499" y1="482.4934" x2="762.4079" y2="-192.2646" gradientTransform="matrix(-1 0 0 1 978.1432 0)">
		<stop  offset="0" style="stop-color:#0D0D0D"/>
		<stop  offset="1" style="stop-color:#4D4D4D"/>
	</linearGradient>
	<rect x="478" y="29" class="st6" width="2" height="84"/>
	<polygon class="st0" points="505,31.3 563.8,113 565,113 565,29 564,29 564,110.6 505.2,29 504,29 504,113 505,113 	"/>
	
		<linearGradient id="SVGID_7_" gradientUnits="userSpaceOnUse" x1="63.0828" y1="451.5605" x2="732.8582" y2="-218.2149" gradientTransform="matrix(-1 0 0 1 978.1432 0)">
		<stop  offset="0" style="stop-color:#0D0D0D"/>
		<stop  offset="1" style="stop-color:#4D4D4D"/>
	</linearGradient>
	<polygon class="st7" points="505,31.3 563.8,113 565,113 565,29 564,29 564,110.6 505.2,29 504,29 504,113 505,113 	"/>
	<path class="st0" d="M605,96.3V29h-2v67.3c0,9-3.1,16.2-13.1,16.2c-3.5,0-6.9-0.8-8.3-1.3l-0.2,1.3c1.1,0.4,4.9,1.2,8.9,1.2
		C601.2,113.7,605,106.3,605,96.3z"/>
	
		<linearGradient id="SVGID_8_" gradientUnits="userSpaceOnUse" x1="31.553" y1="424.1705" x2="705.5002" y2="-249.7766" gradientTransform="matrix(-1 0 0 1 978.1432 0)">
		<stop  offset="0" style="stop-color:#0D0D0D"/>
		<stop  offset="1" style="stop-color:#4D4D4D"/>
	</linearGradient>
	<path class="st8" d="M605,96.3V29h-2v67.3c0,9-3.1,16.2-13.1,16.2c-3.5,0-6.9-0.8-8.3-1.3l-0.2,1.3c1.1,0.4,4.9,1.2,8.9,1.2
		C601.2,113.7,605,106.3,605,96.3z"/>
	<path class="st0" d="M665.5,114.5c23.5,0,41.8-18.6,41.8-43.6S689,27.4,665.5,27.4C642,27.4,623.8,46,623.8,71
		S642,114.5,665.5,114.5z M665.5,28.6c22.9,0,40.6,18.1,40.6,42.4c0,24.2-17.6,42.4-40.6,42.4S625,95.2,625,71
		C625,46.8,642.6,28.6,665.5,28.6z"/>
	
		<linearGradient id="SVGID_9_" gradientUnits="userSpaceOnUse" x1="-1.6577" y1="385.2827" x2="666.7982" y2="-283.1732" gradientTransform="matrix(-1 0 0 1 978.1432 0)">
		<stop  offset="0" style="stop-color:#0D0D0D"/>
		<stop  offset="1" style="stop-color:#4D4D4D"/>
	</linearGradient>
	<path class="st9" d="M665.5,114.5c23.5,0,41.8-18.6,41.8-43.6S689,27.4,665.5,27.4C642,27.4,623.8,46,623.8,71
		S642,114.5,665.5,114.5z M665.5,28.6c22.9,0,40.6,18.1,40.6,42.4c0,24.2-17.6,42.4-40.6,42.4S625,95.2,625,71
		C625,46.8,642.6,28.6,665.5,28.6z"/>
	<polygon class="st0" points="780,112 721.4,112 780,30.2 780,29 722,29 722,31 778.2,31 720,111.8 720,113 780,113 	"/>
	
		<linearGradient id="SVGID_10_" gradientUnits="userSpaceOnUse" x1="-43.7871" y1="342.9304" x2="624.3173" y2="-325.174" gradientTransform="matrix(-1 0 0 1 978.1432 0)">
		<stop  offset="0" style="stop-color:#0D0D0D"/>
		<stop  offset="1" style="stop-color:#4D4D4D"/>
	</linearGradient>
	<polygon class="st10" points="780,112 721.4,112 780,30.2 780,29 722,29 722,31 778.2,31 720,111.8 720,113 780,113 	"/>
	<rect x="799" y="29" class="st0" width="1" height="84"/>
	
		<linearGradient id="SVGID_11_" gradientUnits="userSpaceOnUse" x1="-68.0583" y1="317.7016" x2="598.8537" y2="-349.2104" gradientTransform="matrix(-1 0 0 1 978.1432 0)">
		<stop  offset="0" style="stop-color:#0D0D0D"/>
		<stop  offset="1" style="stop-color:#4D4D4D"/>
	</linearGradient>
	<rect x="799" y="29" class="st11" width="1" height="84"/>
</g>
</svg>
