<?xml version="1.0" encoding="utf-8"?>
<!-- Generator: Adobe Illustrator 19.1.0, SVG Export Plug-In . SVG Version: 6.00 Build 0)  -->
<!DOCTYPE svg PUBLIC "-//W3C//DTD SVG 1.1//EN" "http://www.w3.org/Graphics/SVG/1.1/DTD/svg11.dtd">
<svg version="1.1" id="Layer_1" xmlns="http://www.w3.org/2000/svg" xmlns:xlink="http://www.w3.org/1999/xlink" x="0px" y="0px"
	 width="1000px" height="100px" viewBox="0 0 1000 100" style="enable-background:new 0 0 1000 100;" xml:space="preserve">
<style type="text/css">
	.st0{fill:#333333;}
	.st1{fill:url(#SVGID_1_);}
	.st2{fill:url(#SVGID_2_);}
	.st3{fill:url(#SVGID_3_);}
	.st4{fill:url(#SVGID_4_);}
	.st5{fill:url(#SVGID_5_);}
	.st6{fill:url(#SVGID_6_);}
	.st7{fill:url(#SVGID_7_);}
	.st8{fill:url(#SVGID_8_);}
	.st9{fill:url(#SVGID_9_);}
	.st10{fill:url(#SVGID_10_);}
	.st11{fill:url(#SVGID_11_);}
	.st12{fill:url(#SVGID_12_);}
	.st13{fill:#FFFFFF;}
	.st14{fill:url(#SVGID_13_);}
	.st15{fill:url(#SVGID_14_);}
	.st16{fill:url(#SVGID_15_);}
	.st17{fill:url(#SVGID_16_);}
	.st18{fill:url(#SVGID_17_);}
	.st19{fill:url(#SVGID_18_);}
	.st20{fill:url(#SVGID_19_);}
	.st21{fill:url(#SVGID_20_);}
	.st22{fill:url(#SVGID_21_);}
	.st23{fill:url(#SVGID_22_);}
	.st24{fill:url(#SVGID_23_);}
	.st25{fill:url(#SVGID_24_);}
	.st26{fill:url(#SVGID_25_);}
	.st27{fill:url(#SVGID_26_);}
	.st28{fill:url(#SVGID_27_);}
	.st29{fill:url(#SVGID_28_);}
	.st30{fill:url(#SVGID_29_);}
	.st31{fill:url(#SVGID_30_);}
	.st32{fill:url(#SVGID_31_);}
	.st33{fill:url(#SVGID_32_);}
	.st34{fill:url(#SVGID_33_);}
	.st35{fill:url(#SVGID_34_);}
	.st36{fill:url(#SVGID_35_);}
	.st37{fill:url(#SVGID_36_);}
	.st38{fill:url(#SVGID_37_);}
	.st39{fill:url(#SVGID_38_);}
	.st40{fill:url(#SVGID_39_);}
	.st41{fill:url(#SVGID_40_);}
	.st42{fill:url(#SVGID_41_);}
	.st43{fill:url(#SVGID_42_);}
	.st44{fill:url(#SVGID_43_);}
	.st45{fill:url(#SVGID_44_);}
	.st46{fill:url(#SVGID_45_);}
	.st47{fill:url(#SVGID_46_);}
</style>
<g>
	<polygon class="st13" points="41.9,26.2 39.9,26.2 39.9,54.2 13.9,54.2 13.9,55.2 39.9,55.2 39.9,83.2 41.9,83.2 41.9,55.2 
		67.9,55.2 67.9,54.2 41.9,54.2 	"/>
	<polygon class="st13" points="41.9,26.2 39.9,26.2 39.9,54.2 13.9,54.2 13.9,55.2 39.9,55.2 39.9,83.2 41.9,83.2 41.9,55.2 
		67.9,55.2 67.9,54.2 41.9,54.2 	"/>
	<polygon class="st13" points="120.3,91.2 133.5,39.7 146.8,91.2 169.5,91.2 190.8,9.2 169.4,9.2 157,66.9 142.6,9.2 124.5,9.2 
		110.1,66.9 97.7,9.2 76.3,9.2 97.6,91.2 	"/>
	<polygon class="st13" points="120.3,91.2 133.5,39.7 146.8,91.2 169.5,91.2 190.8,9.2 169.4,9.2 157,66.9 142.6,9.2 124.5,9.2 
		110.1,66.9 97.7,9.2 76.3,9.2 97.6,91.2 	"/>
	<polygon class="st13" points="270.9,9.2 250.9,9.2 250.9,40.2 221.9,40.2 221.9,9.2 200.9,9.2 200.9,91.2 221.9,91.2 221.9,58.2 
		250.9,58.2 250.9,91.2 270.9,91.2 	"/>
	<polygon class="st13" points="270.9,9.2 250.9,9.2 250.9,40.2 221.9,40.2 221.9,9.2 200.9,9.2 200.9,91.2 221.9,91.2 221.9,58.2 
		250.9,58.2 250.9,91.2 270.9,91.2 	"/>
	<path class="st13" d="M309.3,9.2l-28.3,82h20.1l5.9-19h25.8l5.9,19h20.1l-28.3-82H309.3z M312.1,56.2l7.7-26l7.7,26H312.1z"/>
	<path class="st13" d="M309.3,9.2l-28.3,82h20.1l5.9-19h25.8l5.9,19h20.1l-28.3-82H309.3z M312.1,56.2l7.7-26l7.7,26H312.1z"/>
	<polygon class="st13" points="394.9,91.2 394.9,27.2 411.9,27.2 411.9,9.2 356.9,9.2 356.9,27.2 374.9,27.2 374.9,91.2 	"/>
	<polygon class="st13" points="394.9,91.2 394.9,27.2 411.9,27.2 411.9,9.2 356.9,9.2 356.9,27.2 374.9,27.2 374.9,91.2 	"/>
	<polygon class="st13" points="419.8,9.2 418.4,9.2 443.3,91.2 444.5,91.2 469.4,11.7 494.4,91.2 495.5,91.2 520.5,9.2 519.1,9.2 
		495,88.7 470,9.2 468.8,9.2 443.9,88.7 	"/>
	<polygon class="st13" points="419.8,9.2 418.4,9.2 443.3,91.2 444.5,91.2 469.4,11.7 494.4,91.2 495.5,91.2 520.5,9.2 519.1,9.2 
		495,88.7 470,9.2 468.8,9.2 443.9,88.7 	"/>
	<polygon class="st13" points="569.9,10.2 569.9,9.2 534.9,9.2 534.9,91.2 571.9,91.2 571.9,89.2 535.9,89.2 535.9,49.2 566.9,49.2 
		566.9,48.2 535.9,48.2 535.9,10.2 	"/>
	<polygon class="st13" points="569.9,10.2 569.9,9.2 534.9,9.2 534.9,91.2 571.9,91.2 571.9,89.2 535.9,89.2 535.9,49.2 566.9,49.2 
		566.9,48.2 535.9,48.2 535.9,10.2 	"/>
	<path class="st13" d="M612.6,9.2h-23.7v82h23.7c26.3,0,43.2-15.4,43.2-41C655.8,24.5,639,9.2,612.6,9.2z M612.6,73.2h-3.7v-47h3.7
		c13.5,0,22.4,7.8,22.4,23.5C635,65.4,626.1,73.2,612.6,73.2z"/>
	<path class="st13" d="M612.6,9.2h-23.7v82h23.7c26.3,0,43.2-15.4,43.2-41C655.8,24.5,639,9.2,612.6,9.2z M612.6,73.2h-3.7v-47h3.7
		c13.5,0,22.4,7.8,22.4,23.5C635,65.4,626.1,73.2,612.6,73.2z"/>
	<path class="st13" d="M664.5,49.9c0,24.1,17.1,42.6,43,42.6c25.9,0,43-18.5,43-42.6c0-23.8-17.1-42.4-43-42.4
		C681.6,7.5,664.5,26.1,664.5,49.9z M707.4,26.2c13.1,0,22.1,10.2,22.1,23.7c0,13.8-9.1,23.9-22.1,23.9c-13,0-22.1-10.1-22.1-23.9
		C685.3,36.4,694.3,26.2,707.4,26.2z"/>
	<path class="st13" d="M664.5,49.9c0,24.1,17.1,42.6,43,42.6c25.9,0,43-18.5,43-42.6c0-23.8-17.1-42.4-43-42.4
		C681.6,7.5,664.5,26.1,664.5,49.9z M707.4,26.2c13.1,0,22.1,10.2,22.1,23.7c0,13.8-9.1,23.9-22.1,23.9c-13,0-22.1-10.1-22.1-23.9
		C685.3,36.4,694.3,26.2,707.4,26.2z"/>
</g>
</svg>
