<?xml version="1.0" encoding="utf-8"?>
<!-- Generator: Adobe Illustrator 19.1.0, SVG Export Plug-In . SVG Version: 6.00 Build 0)  -->
<!DOCTYPE svg PUBLIC "-//W3C//DTD SVG 1.1//EN" "http://www.w3.org/Graphics/SVG/1.1/DTD/svg11.dtd">
<svg version="1.1" id="Layer_1" xmlns="http://www.w3.org/2000/svg" xmlns:xlink="http://www.w3.org/1999/xlink" x="0px" y="0px"
	 width="1000px" height="100px" viewBox="0 0 1000 100" style="enable-background:new 0 0 1000 100;" xml:space="preserve">
<style type="text/css">
	.st0{fill:#333333;}
	.st1{fill:url(#SVGID_1_);}
	.st2{fill:url(#SVGID_2_);}
	.st3{fill:url(#SVGID_3_);}
	.st4{fill:url(#SVGID_4_);}
	.st5{fill:url(#SVGID_5_);}
	.st6{fill:url(#SVGID_6_);}
	.st7{fill:url(#SVGID_7_);}
	.st8{fill:url(#SVGID_8_);}
	.st9{fill:url(#SVGID_9_);}
	.st10{fill:url(#SVGID_10_);}
	.st11{fill:url(#SVGID_11_);}
	.st12{fill:url(#SVGID_12_);}
	.st13{fill:#FFFFFF;}
	.st14{fill:url(#SVGID_13_);}
	.st15{fill:url(#SVGID_14_);}
	.st16{fill:url(#SVGID_15_);}
	.st17{fill:url(#SVGID_16_);}
	.st18{fill:url(#SVGID_17_);}
	.st19{fill:url(#SVGID_18_);}
	.st20{fill:url(#SVGID_19_);}
	.st21{fill:url(#SVGID_20_);}
	.st22{fill:url(#SVGID_21_);}
	.st23{fill:url(#SVGID_22_);}
	.st24{fill:url(#SVGID_23_);}
	.st25{fill:url(#SVGID_24_);}
	.st26{fill:url(#SVGID_25_);}
	.st27{fill:url(#SVGID_26_);}
	.st28{fill:url(#SVGID_27_);}
	.st29{fill:url(#SVGID_28_);}
	.st30{fill:url(#SVGID_29_);}
	.st31{fill:url(#SVGID_30_);}
	.st32{fill:url(#SVGID_31_);}
	.st33{fill:url(#SVGID_32_);}
	.st34{fill:url(#SVGID_33_);}
	.st35{fill:url(#SVGID_34_);}
	.st36{fill:url(#SVGID_35_);}
	.st37{fill:url(#SVGID_36_);}
	.st38{fill:url(#SVGID_37_);}
	.st39{fill:url(#SVGID_38_);}
	.st40{fill:url(#SVGID_39_);}
	.st41{fill:url(#SVGID_40_);}
	.st42{fill:url(#SVGID_41_);}
	.st43{fill:url(#SVGID_42_);}
	.st44{fill:url(#SVGID_43_);}
	.st45{fill:url(#SVGID_44_);}
	.st46{fill:url(#SVGID_45_);}
	.st47{fill:url(#SVGID_46_);}
</style>
<g>
	<polygon class="st13" points="41.9,26.5 40.9,26.5 40.9,53.5 13.9,53.5 13.9,55.5 40.9,55.5 40.9,82.5 41.9,82.5 41.9,55.5 
		67.9,55.5 67.9,53.5 41.9,53.5 	"/>
	<polygon class="st13" points="41.9,26.5 40.9,26.5 40.9,53.5 13.9,53.5 13.9,55.5 40.9,55.5 40.9,82.5 41.9,82.5 41.9,55.5 
		67.9,55.5 67.9,53.5 41.9,53.5 	"/>
	<path class="st13" d="M102.4,72.5h25.8l5.9,18h20.1l-28.3-81h-21.1l-28.3,81h20.1L102.4,72.5z M115.3,30.5l7.7,26h-15.5L115.3,30.5
		z"/>
	<path class="st13" d="M102.4,72.5h25.8l5.9,18h20.1l-28.3-81h-21.1l-28.3,81h20.1L102.4,72.5z M115.3,30.5l7.7,26h-15.5L115.3,30.5
		z"/>
	<path class="st13" d="M222.9,66.2c0-8.4-3.4-15-11.5-18.4c5.6-3.2,8.9-9.6,8.9-16.6c0-14-10-21.7-26.6-21.7h-28.9v81h29.8
		C210.4,90.5,222.9,82.8,222.9,66.2z M183.9,26.5h8.8c4.9,0,7.3,2.5,7.3,6.8c0,4.4-2.5,7.2-7,7.2h-9V26.5z M183.9,73.5v-17h10.3
		c5.3,0,8.1,3.5,8.1,8.4c0,4.7-2.9,8.6-8.2,8.6H183.9z"/>
	<path class="st13" d="M222.9,66.2c0-8.4-3.4-15-11.5-18.4c5.6-3.2,8.9-9.6,8.9-16.6c0-14-10-21.7-26.6-21.7h-28.9v81h29.8
		C210.4,90.5,222.9,82.8,222.9,66.2z M183.9,26.5h8.8c4.9,0,7.3,2.5,7.3,6.8c0,4.4-2.5,7.2-7,7.2h-9V26.5z M183.9,73.5v-17h10.3
		c5.3,0,8.1,3.5,8.1,8.4c0,4.7-2.9,8.6-8.2,8.6H183.9z"/>
	<path class="st13" d="M274.4,92.4c25.9,0,43-18.5,43-42.6c0-23.8-17.1-42.4-43-42.4c-25.9,0-43,18.6-43,42.4
		C231.4,73.9,248.5,92.4,274.4,92.4z M274.4,26.1c13.1,0,22.1,10.2,22.1,23.7c0,13.8-9.1,23.9-22.1,23.9c-13,0-22.1-10.1-22.1-23.9
		C252.3,36.3,261.3,26.1,274.4,26.1z"/>
	<path class="st13" d="M274.4,92.4c25.9,0,43-18.5,43-42.6c0-23.8-17.1-42.4-43-42.4c-25.9,0-43,18.6-43,42.4
		C231.4,73.9,248.5,92.4,274.4,92.4z M274.4,26.1c13.1,0,22.1,10.2,22.1,23.7c0,13.8-9.1,23.9-22.1,23.9c-13,0-22.1-10.1-22.1-23.9
		C252.3,36.3,261.3,26.1,274.4,26.1z"/>
	<path class="st13" d="M363.9,92.3c21.7,0,34-13.8,34-33V9.5h-20v49.7c0,9-4.9,14.5-13.9,14.5c-8.9,0-14.1-5.5-14.1-14.4V9.5h-20
		v49.8C329.9,78.9,341.9,92.3,363.9,92.3z"/>
	<path class="st13" d="M363.9,92.3c21.7,0,34-13.8,34-33V9.5h-20v49.7c0,9-4.9,14.5-13.9,14.5c-8.9,0-14.1-5.5-14.1-14.4V9.5h-20
		v49.8C329.9,78.9,341.9,92.3,363.9,92.3z"/>
	<polygon class="st13" points="427.9,90.5 447.9,90.5 447.9,26.5 464.9,26.5 464.9,9.5 409.9,9.5 409.9,26.5 427.9,26.5 	"/>
	<polygon class="st13" points="427.9,90.5 447.9,90.5 447.9,26.5 464.9,26.5 464.9,9.5 409.9,9.5 409.9,26.5 427.9,26.5 	"/>
	<rect x="480.9" y="9.5" class="st13" width="1" height="81"/>
	<rect x="480.9" y="9.5" class="st13" width="1" height="81"/>
	<polygon class="st13" points="506.9,11.1 564.2,90.5 564.9,90.5 564.9,9.5 563.9,9.5 563.9,88.5 507,9.5 505.9,9.5 505.9,90.5 
		506.9,90.5 	"/>
	<polygon class="st13" points="506.9,11.1 564.2,90.5 564.9,90.5 564.9,9.5 563.9,9.5 563.9,88.5 507,9.5 505.9,9.5 505.9,90.5 
		506.9,90.5 	"/>
	<path class="st13" d="M603.9,74.6V9.5h-1v65.1c0,8.8-3.2,15.8-13,15.8c-3.4,0-6.8-0.8-8.2-1.3l-0.2,1.3c1.1,0.4,4.5,1.2,8.4,1.2
		C600.4,91.6,603.9,84.3,603.9,74.6z"/>
	<path class="st13" d="M603.9,74.6V9.5h-1v65.1c0,8.8-3.2,15.8-13,15.8c-3.4,0-6.8-0.8-8.2-1.3l-0.2,1.3c1.1,0.4,4.5,1.2,8.4,1.2
		C600.4,91.6,603.9,84.3,603.9,74.6z"/>
	<path class="st13" d="M663.4,92.4c22.9,0,40.7-18.1,40.7-42.5S686.4,7.4,663.4,7.4c-22.9,0-40.7,18.1-40.7,42.5
		S640.5,92.4,663.4,92.4z M663.4,8.6c22.4,0,39.6,17.7,39.6,41.3s-17.2,41.3-39.6,41.3c-22.4,0-39.6-17.7-39.6-41.3
		S641.1,8.6,663.4,8.6z"/>
	<path class="st13" d="M663.4,92.4c22.9,0,40.7-18.1,40.7-42.5S686.4,7.4,663.4,7.4c-22.9,0-40.7,18.1-40.7,42.5
		S640.5,92.4,663.4,92.4z M663.4,8.6c22.4,0,39.6,17.7,39.6,41.3s-17.2,41.3-39.6,41.3c-22.4,0-39.6-17.7-39.6-41.3
		S641.1,8.6,663.4,8.6z"/>
	<polygon class="st13" points="774.9,89.5 718,89.5 774.9,10.1 774.9,9.5 717.9,9.5 717.9,10.5 773.4,10.5 716.9,89.7 716.9,90.5 
		774.9,90.5 	"/>
	<polygon class="st13" points="774.9,89.5 718,89.5 774.9,10.1 774.9,9.5 717.9,9.5 717.9,10.5 773.4,10.5 716.9,89.7 716.9,90.5 
		774.9,90.5 	"/>
	<rect x="793.9" y="9.5" class="st13" width="1" height="81"/>
	<rect x="793.9" y="9.5" class="st13" width="1" height="81"/>
</g>
</svg>
