<?xml version="1.0" encoding="utf-8"?>
<!-- Generator: Adobe Illustrator 19.1.0, SVG Export Plug-In . SVG Version: 6.00 Build 0)  -->
<!DOCTYPE svg PUBLIC "-//W3C//DTD SVG 1.1//EN" "http://www.w3.org/Graphics/SVG/1.1/DTD/svg11.dtd">
<svg version="1.1" id="Layer_1" xmlns="http://www.w3.org/2000/svg" xmlns:xlink="http://www.w3.org/1999/xlink" x="0px" y="0px"
	 width="753.4px" height="142px" viewBox="0 0 753.4 142" style="enable-background:new 0 0 753.4 142;" xml:space="preserve">
<style type="text/css">
	.st0{fill:#333333;}
	.st1{fill:url(#SVGID_1_);}
	.st2{fill:url(#SVGID_2_);}
	.st3{fill:url(#SVGID_3_);}
	.st4{fill:url(#SVGID_4_);}
	.st5{fill:url(#SVGID_5_);}
	.st6{fill:url(#SVGID_6_);}
	.st7{fill:url(#SVGID_7_);}
	.st8{fill:url(#SVGID_8_);}
	.st9{fill:url(#SVGID_9_);}
	.st10{fill:url(#SVGID_10_);}
	.st11{fill:url(#SVGID_11_);}
	.st12{fill:#FFFFFF;}
	.st13{fill:url(#SVGID_12_);}
	.st14{fill:url(#SVGID_13_);}
	.st15{fill:url(#SVGID_14_);}
	.st16{fill:url(#SVGID_15_);}
	.st17{fill:url(#SVGID_16_);}
	.st18{fill:url(#SVGID_17_);}
	.st19{fill:url(#SVGID_18_);}
	.st20{fill:url(#SVGID_19_);}
	.st21{fill:url(#SVGID_20_);}
	.st22{fill:url(#SVGID_21_);}
	.st23{fill:url(#SVGID_22_);}
	.st24{fill:url(#SVGID_23_);}
	.st25{fill:url(#SVGID_24_);}
	.st26{fill:url(#SVGID_25_);}
	.st27{fill:url(#SVGID_26_);}
	.st28{fill:url(#SVGID_27_);}
	.st29{fill:url(#SVGID_28_);}
	.st30{fill:url(#SVGID_29_);}
	.st31{fill:url(#SVGID_30_);}
	.st32{fill:url(#SVGID_31_);}
	.st33{fill:url(#SVGID_32_);}
	.st34{fill:url(#SVGID_33_);}
	.st35{fill:#36D397;}
	.st36{fill:url(#SVGID_34_);}
</style>
<g>
	<path class="st12" d="M-0.6,75.1h27.1V46.4h1.2v28.7h27v1.2h-27v28.6h-1.2V76.3H-0.6V75.1z"/>
	<path class="st12" d="M110.8,95.1c-15.4,0-23.8-11.4-23.8-24.5s8.4-24.2,23.8-24.2c7.2,0,13.6,2.9,18,5.9l5.8-18
		c-6-4.1-14-7.1-24.5-7.1c-26.2,0-44.4,18.8-44.4,43.4c0,24.7,17.3,43.7,44.4,43.7c10.4,0,18.8-3,24.8-7.1l-5.8-18
		C124.7,92.3,118,95.1,110.8,95.1z"/>
	<path class="st12" d="M110.8,95.1c-15.4,0-23.8-11.4-23.8-24.5s8.4-24.2,23.8-24.2c7.2,0,13.6,2.9,18,5.9l5.8-18
		c-6-4.1-14-7.1-24.5-7.1c-26.2,0-44.4,18.8-44.4,43.4c0,24.7,17.3,43.7,44.4,43.7c10.4,0,18.8-3,24.8-7.1l-5.8-18
		C124.7,92.3,118,95.1,110.8,95.1z"/>
	<path class="st12" d="M187.7,27.2c-26.5,0-44,19.1-44,43.4c0,24.7,17.5,43.7,44,43.7c26.5,0,44-19,44-43.7
		C231.8,46.3,214.3,27.2,187.7,27.2z M187.7,95.1c-13.3,0-22.7-10.3-22.7-24.5c0-13.8,9.2-24.2,22.7-24.2s22.7,10.4,22.7,24.2
		C210.4,84.8,201.1,95.1,187.7,95.1z"/>
	<path class="st12" d="M187.7,27.2c-26.5,0-44,19.1-44,43.4c0,24.7,17.5,43.7,44,43.7c26.5,0,44-19,44-43.7
		C231.8,46.3,214.3,27.2,187.7,27.2z M187.7,95.1c-13.3,0-22.7-10.3-22.7-24.5c0-13.8,9.2-24.2,22.7-24.2s22.7,10.4,22.7,24.2
		C210.4,84.8,201.1,95.1,187.7,95.1z"/>
	<polygon class="st12" points="296.4,80.9 265.5,29 244.4,29 244.4,113 265.4,113 265.4,61.3 296,113 316.4,113 316.4,29 296.4,29 	
		"/>
	<polygon class="st12" points="296.4,80.9 265.5,29 244.4,29 244.4,113 265.4,113 265.4,61.3 296,113 316.4,113 316.4,29 296.4,29 	
		"/>
	<polygon class="st12" points="385.4,29 328.4,29 328.4,48 346.4,48 346.4,113 367.4,113 367.4,48 385.4,48 	"/>
	<polygon class="st12" points="385.4,29 328.4,29 328.4,48 346.4,48 346.4,113 367.4,113 367.4,48 385.4,48 	"/>
	<path class="st12" d="M412.3,29l-29,84h20.6l6-19h26.4l6,19h20.6l-29-84H412.3z M415.1,78l7.9-26.6L431,78H415.1z"/>
	<path class="st12" d="M412.3,29l-29,84h20.6l6-19h26.4l6,19h20.6l-29-84H412.3z M415.1,78l7.9-26.6L431,78H415.1z"/>
	<path class="st12" d="M512,95.1c-15.4,0-23.8-11.4-23.8-24.5s8.4-24.2,23.8-24.2c7.2,0,13.6,2.9,18,5.9l5.8-18
		c-6-4.1-14-7.1-24.5-7.1c-26.2,0-44.4,18.8-44.4,43.4c0,24.7,17.3,43.7,44.4,43.7c10.4,0,18.8-3,24.8-7.1l-5.8-18
		C525.9,92.3,519.2,95.1,512,95.1z"/>
	<path class="st12" d="M512,95.1c-15.4,0-23.8-11.4-23.8-24.5s8.4-24.2,23.8-24.2c7.2,0,13.6,2.9,18,5.9l5.8-18
		c-6-4.1-14-7.1-24.5-7.1c-26.2,0-44.4,18.8-44.4,43.4c0,24.7,17.3,43.7,44.4,43.7c10.4,0,18.8-3,24.8-7.1l-5.8-18
		C525.9,92.3,519.2,95.1,512,95.1z"/>
	<polygon class="st12" points="544.4,48 562.4,48 562.4,113 582.4,113 582.4,48 600.4,48 600.4,29 544.4,29 	"/>
	<polygon class="st12" points="544.4,48 562.4,48 562.4,113 582.4,113 582.4,48 600.4,48 600.4,29 544.4,29 	"/>
	<path class="st12" d="M673.4,84.1c0,17.9-10.7,29-28,29s-28-11.2-28-29V29h-1v55.1c0,18.5,10.9,30.2,29,30.2s29-11.8,29-30.2V29h-1
		V84.1z"/>
	<path class="st12" d="M673.4,84.1c0,17.9-10.7,29-28,29s-28-11.2-28-29V29h-1v55.1c0,18.5,10.9,30.2,29,30.2s29-11.8,29-30.2V29h-1
		V84.1z"/>
	<path class="st12" d="M696.7,46.2c0-9.7,7.3-17.8,19.9-17.8c11.9,0,17.3,7.3,19.6,12.1l1.1-0.5c-2.4-5.2-8-12.8-20.6-12.8
		c-13.3,0-21.1,8.4-21.1,19c0,26.5,42.8,18.7,42.8,47c0,12.7-9.2,19.9-21.4,19.9c-13.2,0-19.6-7.3-22.9-16l-1.1,0.4
		c3.4,8.8,9.8,16.8,24,16.8c13.2,0,22.6-8.2,22.6-21.1C739.5,64.2,696.7,71.5,696.7,46.2z"/>
	<path class="st12" d="M696.7,46.2c0-9.7,7.3-17.8,19.9-17.8c11.9,0,17.3,7.3,19.6,12.1l1.1-0.5c-2.4-5.2-8-12.8-20.6-12.8
		c-13.3,0-21.1,8.4-21.1,19c0,26.5,42.8,18.7,42.8,47c0,12.7-9.2,19.9-21.4,19.9c-13.2,0-19.6-7.3-22.9-16l-1.1,0.4
		c3.4,8.8,9.8,16.8,24,16.8c13.2,0,22.6-8.2,22.6-21.1C739.5,64.2,696.7,71.5,696.7,46.2z"/>
</g>
</svg>
