<?xml version="1.0" encoding="utf-8"?>
<!-- Generator: Adobe Illustrator 15.1.0, SVG Export Plug-In . SVG Version: 6.00 Build 0)  -->
<!DOCTYPE svg PUBLIC "-//W3C//DTD SVG 1.1//EN" "http://www.w3.org/Graphics/SVG/1.1/DTD/svg11.dtd">
<svg version="1.1" id="Layer_1" xmlns="http://www.w3.org/2000/svg" xmlns:xlink="http://www.w3.org/1999/xlink" x="0px" y="0px"
	 width="1091.6px" height="100px" viewBox="0 0 1091.6 100" enable-background="new 0 0 1091.6 100" xml:space="preserve">
<g>
	<polygon fill="#333333" points="41.479,25.6 40.393,25.6 40.393,53.9 15.8,53.9 15.8,55.1 40.393,55.1 40.393,83.301 
		41.479,83.301 41.479,55.1 65.069,55.1 65.069,53.9 41.479,53.9 	"/>
	
		<linearGradient id="SVGID_1_" gradientUnits="userSpaceOnUse" x1="6273.624" y1="-9752.1621" x2="7054.2324" y2="-8971.5547" gradientTransform="matrix(-1 0 0 1 7043.7754 9077.3984)">
		<stop  offset="0" style="stop-color:#0D0D0D"/>
		<stop  offset="1" style="stop-color:#333333"/>
	</linearGradient>
	<polygon fill="url(#SVGID_1_)" points="41.479,25.6 40.393,25.6 40.393,53.9 15.8,53.9 15.8,55.1 40.393,55.1 40.393,83.301 
		41.479,83.301 41.479,55.1 65.069,55.1 65.069,53.9 41.479,53.9 	"/>
	<path fill="#333333" d="M114.523,73.6c-13.666,0-21.038-11.1-21.038-23.799c0-12.7,7.372-23.5,21.038-23.5
		c6.284,0,12.022,2.8,15.931,5.8l5.198-17.5c-5.375-4-12.477-6.8-21.677-6.8c-23.135,0-39.251,18.4-39.251,42.3
		c0,24,15.299,42.5,39.251,42.5c9.201,0,16.757-2.9,21.947-6.8l-5.189-17.5C126.814,70.699,120.807,73.6,114.523,73.6z"/>
	
		<linearGradient id="SVGID_2_" gradientUnits="userSpaceOnUse" x1="6280.2041" y1="-9677.3066" x2="7019.3594" y2="-8938.1514" gradientTransform="matrix(-1 0 0 1 7043.7754 9077.3984)">
		<stop  offset="0" style="stop-color:#0D0D0D"/>
		<stop  offset="1" style="stop-color:#333333"/>
	</linearGradient>
	<path fill="url(#SVGID_2_)" d="M114.523,73.6c-13.666,0-21.038-11.1-21.038-23.799c0-12.7,7.372-23.5,21.038-23.5
		c6.284,0,12.022,2.8,15.931,5.8l5.198-17.5c-5.375-4-12.477-6.8-21.677-6.8c-23.135,0-39.251,18.4-39.251,42.3
		c0,24,15.299,42.5,39.251,42.5c9.201,0,16.757-2.9,21.947-6.8l-5.189-17.5C126.814,70.699,120.807,73.6,114.523,73.6z"/>
	<path fill="#333333" d="M182.551,7.5c-23.495,0-39.073,18.5-39.073,42.3c0,24,15.578,42.5,39.073,42.5
		c23.49,0,39.067-18.5,39.067-42.5C221.526,26.1,206.041,7.5,182.551,7.5z M182.551,73.6c-11.844,0-20.041-10-20.041-23.799
		c0-13.4,8.104-23.5,20.041-23.5c11.932,0,20.037,10.1,20.037,23.5C202.674,63.6,194.39,73.6,182.551,73.6z"/>
	
		<linearGradient id="SVGID_3_" gradientUnits="userSpaceOnUse" x1="6250.3545" y1="-9638.3838" x2="6986.4248" y2="-8902.3135" gradientTransform="matrix(-1 0 0 1 7043.7754 9077.3984)">
		<stop  offset="0" style="stop-color:#0D0D0D"/>
		<stop  offset="1" style="stop-color:#333333"/>
	</linearGradient>
	<path fill="url(#SVGID_3_)" d="M182.551,7.5c-23.495,0-39.073,18.5-39.073,42.3c0,24,15.578,42.5,39.073,42.5
		c23.49,0,39.067-18.5,39.067-42.5C221.526,26.1,206.041,7.5,182.551,7.5z M182.551,73.6c-11.844,0-20.041-10-20.041-23.799
		c0-13.4,8.104-23.5,20.041-23.5c11.932,0,20.037,10.1,20.037,23.5C202.674,63.6,194.39,73.6,182.551,73.6z"/>
	<polygon fill="#333333" points="278.444,59.699 251.401,9.2 233.363,9.2 233.363,90.4 250.574,90.4 250.574,40.6 278.35,90.4 
		296.658,90.4 296.658,9.2 278.444,9.2 	"/>
	
		<linearGradient id="SVGID_4_" gradientUnits="userSpaceOnUse" x1="6211.7432" y1="-9594.6221" x2="6946.8203" y2="-8859.5449" gradientTransform="matrix(-1 0 0 1 7043.7754 9077.3984)">
		<stop  offset="0" style="stop-color:#0D0D0D"/>
		<stop  offset="1" style="stop-color:#333333"/>
	</linearGradient>
	<polygon fill="url(#SVGID_4_)" points="278.444,59.699 251.401,9.2 233.363,9.2 233.363,90.4 250.574,90.4 250.574,40.6 
		278.35,90.4 296.658,90.4 296.658,9.2 278.444,9.2 	"/>
	<polygon fill="#333333" points="356.677,9.2 307.409,9.2 307.409,26.8 323.432,26.8 323.432,90.4 340.644,90.4 340.644,26.8 
		356.677,26.8 	"/>
	
		<linearGradient id="SVGID_5_" gradientUnits="userSpaceOnUse" x1="6180.9561" y1="-9566.3887" x2="6920.5835" y2="-8826.7627" gradientTransform="matrix(-1 0 0 1 7043.7754 9077.3984)">
		<stop  offset="0" style="stop-color:#0D0D0D"/>
		<stop  offset="1" style="stop-color:#333333"/>
	</linearGradient>
	<polygon fill="url(#SVGID_5_)" points="356.677,9.2 307.409,9.2 307.409,26.8 323.432,26.8 323.432,90.4 340.644,90.4 
		340.644,26.8 356.677,26.8 	"/>
	<path fill="#333333" d="M381.26,9.2l-25.771,81.2h18.214l5.376-17.701h23.404l5.375,17.701h18.214l-25.78-81.2
		C400.384,9.2,381.26,9.2,381.26,9.2z M383.813,56.301l7.008-25.901l7.02,25.901H383.813z"/>
	
		<linearGradient id="SVGID_6_" gradientUnits="userSpaceOnUse" x1="6140.6709" y1="-9527.0391" x2="6882.4917" y2="-8785.2188" gradientTransform="matrix(-1 0 0 1 7043.7754 9077.3984)">
		<stop  offset="0" style="stop-color:#0D0D0D"/>
		<stop  offset="1" style="stop-color:#333333"/>
	</linearGradient>
	<path fill="url(#SVGID_6_)" d="M381.26,9.2l-25.771,81.2h18.214l5.376-17.701h23.404l5.375,17.701h18.214l-25.78-81.2
		C400.384,9.2,381.26,9.2,381.26,9.2z M383.813,56.301l7.008-25.901l7.02,25.901H383.813z"/>
	<path fill="#333333" d="M469.51,73.6c-13.666,0-21.037-11.1-21.037-23.799c0-12.7,7.371-23.5,21.037-23.5
		c6.285,0,12.021,2.8,15.933,5.8l5.196-17.5c-5.375-4-12.478-6.8-21.677-6.8c-23.137,0-39.253,18.4-39.253,42.3
		c0,24,15.3,42.5,39.253,42.5c9.199,0,16.756-2.9,21.945-6.8L485.813,68C481.802,70.699,475.796,73.6,469.51,73.6z"/>
	
		<linearGradient id="SVGID_7_" gradientUnits="userSpaceOnUse" x1="6112.2998" y1="-9490.2275" x2="6851.4634" y2="-8751.0625" gradientTransform="matrix(-1 0 0 1 7043.7754 9077.3984)">
		<stop  offset="0" style="stop-color:#0D0D0D"/>
		<stop  offset="1" style="stop-color:#333333"/>
	</linearGradient>
	<path fill="url(#SVGID_7_)" d="M469.51,73.6c-13.666,0-21.037-11.1-21.037-23.799c0-12.7,7.371-23.5,21.037-23.5
		c6.285,0,12.021,2.8,15.933,5.8l5.196-17.5c-5.375-4-12.478-6.8-21.677-6.8c-23.137,0-39.253,18.4-39.253,42.3
		c0,24,15.3,42.5,39.253,42.5c9.199,0,16.756-2.9,21.945-6.8L485.813,68C481.802,70.699,475.796,73.6,469.51,73.6z"/>
	<polygon fill="#333333" points="498.197,26.8 513.218,26.8 513.218,90.4 531.433,90.4 531.433,26.8 547.548,26.8 547.548,9.2 
		498.197,9.2 	"/>
	
		<linearGradient id="SVGID_8_" gradientUnits="userSpaceOnUse" x1="6087.042" y1="-9469.5186" x2="6833.5566" y2="-8723.0029" gradientTransform="matrix(-1 0 0 1 7043.7754 9077.3984)">
		<stop  offset="0" style="stop-color:#0D0D0D"/>
		<stop  offset="1" style="stop-color:#333333"/>
	</linearGradient>
	<polygon fill="url(#SVGID_8_)" points="498.197,26.8 513.218,26.8 513.218,90.4 531.433,90.4 531.433,26.8 547.548,26.8 
		547.548,9.2 498.197,9.2 	"/>
	<polygon fill="#333333" points="586.799,8.9 560.211,90.801 561.401,90.801 587.988,8.9 	"/>
	
		<linearGradient id="SVGID_9_" gradientUnits="userSpaceOnUse" x1="6055.8574" y1="-9441.3672" x2="6807.3335" y2="-8689.8896" gradientTransform="matrix(-1 0 0 1 7043.7754 9077.3984)">
		<stop  offset="0" style="stop-color:#0D0D0D"/>
		<stop  offset="1" style="stop-color:#333333"/>
	</linearGradient>
	<polygon fill="url(#SVGID_9_)" points="586.799,8.9 560.211,90.801 561.401,90.801 587.988,8.9 	"/>
	<path fill="#333333" d="M637.617,91c-19.31,0-35.52-17.199-35.52-41.2s16.21-41.2,35.52-41.2c12.57,0,20.406,6.7,22.948,9.3
		l0.743-0.8c-2.916-3.1-11.028-9.7-23.691-9.7c-20.387,0-36.521,18.2-36.521,42.4c0,24.2,16.221,42.399,36.521,42.399
		c13.201,0,20.685-6.5,24.045-9.699l-0.725-0.801C658.302,84.301,650.56,91,637.617,91z"/>
	
		<linearGradient id="SVGID_10_" gradientUnits="userSpaceOnUse" x1="6032.5049" y1="-9401.0352" x2="6771.5703" y2="-8661.9688" gradientTransform="matrix(-1 0 0 1 7043.7754 9077.3984)">
		<stop  offset="0" style="stop-color:#0D0D0D"/>
		<stop  offset="1" style="stop-color:#333333"/>
	</linearGradient>
	<path fill="url(#SVGID_10_)" d="M637.617,91c-19.31,0-35.52-17.199-35.52-41.2s16.21-41.2,35.52-41.2
		c12.57,0,20.406,6.7,22.948,9.3l0.743-0.8c-2.916-3.1-11.028-9.7-23.691-9.7c-20.387,0-36.521,18.2-36.521,42.4
		c0,24.2,16.221,42.399,36.521,42.399c13.201,0,20.685-6.5,24.045-9.699l-0.725-0.801C658.302,84.301,650.56,91,637.617,91z"/>
	<path fill="#333333" d="M701.099,9.2l-29.058,81.2h1.28l11.848-33h33.143l11.846,33h1.264l-29.04-81.2
		C702.287,9.2,701.099,9.2,701.099,9.2z M685.522,56.301L701.639,10.9l16.208,45.401H685.522z"/>
	
		<linearGradient id="SVGID_11_" gradientUnits="userSpaceOnUse" x1="5990.626" y1="-9364.4863" x2="6738.1709" y2="-8616.9404" gradientTransform="matrix(-1 0 0 1 7043.7754 9077.3984)">
		<stop  offset="0" style="stop-color:#0D0D0D"/>
		<stop  offset="1" style="stop-color:#333333"/>
	</linearGradient>
	<path fill="url(#SVGID_11_)" d="M701.099,9.2l-29.058,81.2h1.28l11.848-33h33.143l11.846,33h1.264l-29.04-81.2
		C702.287,9.2,701.099,9.2,701.099,9.2z M685.522,56.301L701.639,10.9l16.208,45.401H685.522z"/>
	<path fill="#333333" d="M780.789,30c0-12-7.647-20.8-20.946-20.8h-15.037v81.2h1.097V51.5h12.292c3.472,0,6.2-1.1,6.2-1.1
		l19.569,39.901h1.281L765.4,49.9C772.323,48.3,780.789,43.1,780.789,30z M758.195,49.2h-12.292V10.3h13.94
		c12.555,0,19.853,8.1,19.853,19.4C779.696,41.7,771.396,49.2,758.195,49.2z"/>
	
		<linearGradient id="SVGID_12_" gradientUnits="userSpaceOnUse" x1="5967.8369" y1="-9338.5635" x2="6717.7627" y2="-8588.6367" gradientTransform="matrix(-1 0 0 1 7043.7754 9077.3984)">
		<stop  offset="0" style="stop-color:#0D0D0D"/>
		<stop  offset="1" style="stop-color:#333333"/>
	</linearGradient>
	<path fill="url(#SVGID_12_)" d="M780.789,30c0-12-7.647-20.8-20.946-20.8h-15.037v81.2h1.097V51.5h12.292c3.472,0,6.2-1.1,6.2-1.1
		l19.569,39.901h1.281L765.4,49.9C772.323,48.3,780.789,43.1,780.789,30z M758.195,49.2h-12.292V10.3h13.94
		c12.555,0,19.853,8.1,19.853,19.4C779.696,41.7,771.396,49.2,758.195,49.2z"/>
	<polygon fill="#333333" points="801.642,49.2 828.414,49.2 828.414,48 801.642,48 801.642,10.3 832.78,10.3 832.78,9.2 
		800.546,9.2 800.546,90.4 833.781,90.4 833.781,89.199 801.642,89.199 	"/>
	
		<linearGradient id="SVGID_13_" gradientUnits="userSpaceOnUse" x1="5943.9385" y1="-9310.2715" x2="6692.6846" y2="-8561.5244" gradientTransform="matrix(-1 0 0 1 7043.7754 9077.3984)">
		<stop  offset="0" style="stop-color:#0D0D0D"/>
		<stop  offset="1" style="stop-color:#333333"/>
	</linearGradient>
	<polygon fill="url(#SVGID_13_)" points="801.642,49.2 828.414,49.2 828.414,48 801.642,48 801.642,10.3 832.78,10.3 832.78,9.2 
		800.546,9.2 800.546,90.4 833.781,90.4 833.781,89.199 801.642,89.199 	"/>
	<polygon fill="#333333" points="853.091,49.2 880.96,49.2 880.96,48 853.091,48 853.091,10.3 884.247,10.3 884.247,9.2 
		851.995,9.2 851.995,90.4 885.25,90.4 885.25,89.199 853.091,89.199 	"/>
	
		<linearGradient id="SVGID_14_" gradientUnits="userSpaceOnUse" x1="5919.9893" y1="-9282.7637" x2="6668.8394" y2="-8533.9141" gradientTransform="matrix(-1 0 0 1 7043.7754 9077.3984)">
		<stop  offset="0" style="stop-color:#0D0D0D"/>
		<stop  offset="1" style="stop-color:#333333"/>
	</linearGradient>
	<polygon fill="url(#SVGID_14_)" points="853.091,49.2 880.96,49.2 880.96,48 853.091,48 853.091,10.3 884.247,10.3 884.247,9.2 
		851.995,9.2 851.995,90.4 885.25,90.4 885.25,89.199 853.091,89.199 	"/>
	<path fill="#333333" d="M939.337,30c0-12-7.65-20.8-20.943-20.8h-14.947v81.2h1.094V51.5h12.22c3.454,0,6.184-1.1,6.184-1.1
		l19.589,39.901h1.261L923.945,49.9C930.778,48.3,939.337,43.1,939.337,30z M916.759,49.2h-12.22V10.3h13.853
		c12.57,0,19.849,8.1,19.849,19.4C938.24,41.7,929.96,49.2,916.759,49.2z"/>
	
		<linearGradient id="SVGID_15_" gradientUnits="userSpaceOnUse" x1="5894.3164" y1="-9253.4863" x2="6643.2358" y2="-8504.5664" gradientTransform="matrix(-1 0 0 1 7043.7754 9077.3984)">
		<stop  offset="0" style="stop-color:#0D0D0D"/>
		<stop  offset="1" style="stop-color:#333333"/>
	</linearGradient>
	<path fill="url(#SVGID_15_)" d="M939.337,30c0-12-7.65-20.8-20.943-20.8h-14.947v81.2h1.094V51.5h12.22
		c3.454,0,6.184-1.1,6.184-1.1l19.589,39.901h1.261L923.945,49.9C930.778,48.3,939.337,43.1,939.337,30z M916.759,49.2h-12.22V10.3
		h13.853c12.57,0,19.849,8.1,19.849,19.4C938.24,41.7,929.96,49.2,916.759,49.2z"/>
	<path fill="#333333" d="M957.828,26c0-9.4,6.461-17.3,17.564-17.3c10.473,0,15.299,7.1,17.305,11.8L993.7,20
		c-2.189-5.1-7.093-12.5-18.215-12.5c-11.826,0-18.659,8.1-18.659,18.4c0,25.799,37.97,18.2,37.97,45.7
		c0,12.4-8.095,19.301-18.846,19.301c-11.661,0-17.305-7.1-20.312-15.5l-1.002,0.4c3.009,8.5,8.651,16.398,21.223,16.398
		c11.658,0,19.941-7.898,19.941-20.5C995.8,43.4,957.828,50.6,957.828,26z"/>
	
		<linearGradient id="SVGID_16_" gradientUnits="userSpaceOnUse" x1="5869.876" y1="-9225.582" x2="6619.1733" y2="-8476.2852" gradientTransform="matrix(-1 0 0 1 7043.7754 9077.3984)">
		<stop  offset="0" style="stop-color:#0D0D0D"/>
		<stop  offset="1" style="stop-color:#333333"/>
	</linearGradient>
	<path fill="url(#SVGID_16_)" d="M957.828,26c0-9.4,6.461-17.3,17.564-17.3c10.473,0,15.299,7.1,17.305,11.8L993.7,20
		c-2.189-5.1-7.093-12.5-18.215-12.5c-11.826,0-18.659,8.1-18.659,18.4c0,25.799,37.97,18.2,37.97,45.7
		c0,12.4-8.095,19.301-18.846,19.301c-11.661,0-17.305-7.1-20.312-15.5l-1.002,0.4c3.009,8.5,8.651,16.398,21.223,16.398
		c11.658,0,19.941-7.898,19.941-20.5C995.8,43.4,957.828,50.6,957.828,26z"/>
</g>
</svg>
