<?xml version="1.0" encoding="utf-8"?>
<!-- Generator: Adobe Illustrator 19.1.0, SVG Export Plug-In . SVG Version: 6.00 Build 0)  -->
<!DOCTYPE svg PUBLIC "-//W3C//DTD SVG 1.1//EN" "http://www.w3.org/Graphics/SVG/1.1/DTD/svg11.dtd">
<svg version="1.1" id="Layer_1" xmlns="http://www.w3.org/2000/svg" xmlns:xlink="http://www.w3.org/1999/xlink" x="0px" y="0px"
	 width="1058px" height="142px" viewBox="0 0 1058 142" style="enable-background:new 0 0 1058 142;" xml:space="preserve">
<style type="text/css">
	.st0{fill:#333333;}
	.st1{fill:url(#SVGID_1_);}
	.st2{fill:url(#SVGID_2_);}
	.st3{fill:url(#SVGID_3_);}
	.st4{fill:url(#SVGID_4_);}
	.st5{fill:url(#SVGID_5_);}
	.st6{fill:url(#SVGID_6_);}
	.st7{fill:url(#SVGID_7_);}
	.st8{fill:url(#SVGID_8_);}
	.st9{fill:url(#SVGID_9_);}
	.st10{fill:url(#SVGID_10_);}
	.st11{fill:url(#SVGID_11_);}
	.st12{fill:#FFFFFF;}
	.st13{fill:url(#SVGID_12_);}
	.st14{fill:url(#SVGID_13_);}
	.st15{fill:url(#SVGID_14_);}
	.st16{fill:url(#SVGID_15_);}
	.st17{fill:url(#SVGID_16_);}
	.st18{fill:url(#SVGID_17_);}
	.st19{fill:url(#SVGID_18_);}
	.st20{fill:url(#SVGID_19_);}
	.st21{fill:url(#SVGID_20_);}
	.st22{fill:url(#SVGID_21_);}
	.st23{fill:url(#SVGID_22_);}
	.st24{fill:url(#SVGID_23_);}
	.st25{fill:url(#SVGID_24_);}
	.st26{fill:url(#SVGID_25_);}
	.st27{fill:url(#SVGID_26_);}
	.st28{fill:url(#SVGID_27_);}
	.st29{fill:url(#SVGID_28_);}
	.st30{fill:url(#SVGID_29_);}
	.st31{fill:url(#SVGID_30_);}
	.st32{fill:url(#SVGID_31_);}
	.st33{fill:url(#SVGID_32_);}
	.st34{fill:url(#SVGID_33_);}
	.st35{fill:#36D397;}
	.st36{fill:url(#SVGID_34_);}
</style>
<g>
	<path class="st12" d="M0,75.1h27.1V46.4h1.2v28.7h27v1.2h-27v28.6h-1.2V76.3H0V75.1z"/>
	<polygon class="st12" points="181.4,30 159.5,30 146.8,89.2 132,30 113.5,30 98.8,89.2 86,30 64.1,30 85.9,114 109.2,114 
		122.8,61.2 136.3,114 159.6,114 	"/>
	<polygon class="st12" points="181.4,30 159.5,30 146.8,89.2 132,30 113.5,30 98.8,89.2 86,30 64.1,30 85.9,114 109.2,114 
		122.8,61.2 136.3,114 159.6,114 	"/>
	<path class="st12" d="M232.1,27.8c-26.5,0-44,19.1-44,43.4c0,24.7,17.5,43.7,44,43.7c26.5,0,44-19,44-43.7
		C276.1,46.9,258.6,27.8,232.1,27.8z M232.1,95.7c-13.3,0-22.7-10.3-22.7-24.5c0-13.8,9.2-24.2,22.7-24.2s22.7,10.4,22.7,24.2
		C254.8,85.4,245.4,95.7,232.1,95.7z"/>
	<path class="st12" d="M232.1,27.8c-26.5,0-44,19.1-44,43.4c0,24.7,17.5,43.7,44,43.7c26.5,0,44-19,44-43.7
		C276.1,46.9,258.6,27.8,232.1,27.8z M232.1,95.7c-13.3,0-22.7-10.3-22.7-24.5c0-13.8,9.2-24.2,22.7-24.2s22.7,10.4,22.7,24.2
		C254.8,85.4,245.4,95.7,232.1,95.7z"/>
	<path class="st12" d="M289,114h21V83h6l15,31h22.7c-19.4-36-19.3-36.3-19.3-36.3c7.7-4.2,11.6-12.8,11.6-22
		C346,39,336.4,30,316.6,30H289V114z M310,47h4.9c7.4,0,10.1,3.8,10.1,9.3c0,5.8-3.5,9.7-9.1,9.7H310V47z"/>
	<path class="st12" d="M289,114h21V83h6l15,31h22.7c-19.4-36-19.3-36.3-19.3-36.3c7.7-4.2,11.6-12.8,11.6-22
		C346,39,336.4,30,316.6,30H289V114z M310,47h4.9c7.4,0,10.1,3.8,10.1,9.3c0,5.8-3.5,9.7-9.1,9.7H310V47z"/>
	<polygon class="st12" points="364,30 364,114 385,114 385,79.5 409.2,114 432.7,114 400.7,70.2 432.1,30 409.2,30 385,61.8 385,30 
			"/>
	<polygon class="st12" points="364,30 364,114 385,114 385,79.5 409.2,114 432.7,114 400.7,70.2 432.1,30 409.2,30 385,61.8 385,30 
			"/>
	<path class="st12" d="M446,48c0,9.8,8.4,17.2,12.5,21.4c-7.7,3.7-16.7,10.2-16.7,22.3c0,13.9,11.8,23.3,26.9,23.3
		c12.8,0,20.4-6,25.7-11.9l10.7,10l1-1l-10.9-9.6C500.3,94.6,502,88,502,76h-1.2c0,11-1.6,18.4-6.6,25.6l-29.9-28.1
		C478.8,66.3,488,59,488,48.1c0-11.5-8.3-20.2-21.4-20.2C454.2,27.9,446,36.6,446,48z M493.4,102.2c-5,5.9-13.6,11.5-24.7,11.5
		c-14.6,0-25.7-9.2-25.7-22.1c0-11.5,9.4-18.1,16.4-21.4L493.4,102.2z M466.7,29c12.2,0,20.2,8.4,20.2,19
		c0,10.7-10.1,17.9-23.5,24.4c-7.3-7-16.1-14.8-16.1-24.4C447.2,37.4,455.3,29,466.7,29z"/>
	<path class="st12" d="M446,48c0,9.8,8.4,17.2,12.5,21.4c-7.7,3.7-16.7,10.2-16.7,22.3c0,13.9,11.8,23.3,26.9,23.3
		c12.8,0,20.4-6,25.7-11.9l10.7,10l1-1l-10.9-9.6C500.3,94.6,502,88,502,76h-1.2c0,11-1.6,18.4-6.6,25.6l-29.9-28.1
		C478.8,66.3,488,59,488,48.1c0-11.5-8.3-20.2-21.4-20.2C454.2,27.9,446,36.6,446,48z M493.4,102.2c-5,5.9-13.6,11.5-24.7,11.5
		c-14.6,0-25.7-9.2-25.7-22.1c0-11.5,9.4-18.1,16.4-21.4L493.4,102.2z M466.7,29c12.2,0,20.2,8.4,20.2,19
		c0,10.7-10.1,17.9-23.5,24.4c-7.3-7-16.1-14.8-16.1-24.4C447.2,37.4,455.3,29,466.7,29z"/>
	<path class="st12" d="M569.8,88.3c0-25.7-35-24.5-35-35.9c0-3.2,2.6-5.6,6.6-5.6c6.4,0,8.9,4.6,10.6,8.3l17-7.8
		c-2.2-6.4-9.1-19.4-27.1-19.4c-16.7,0-27.6,9.8-27.6,25c0,26.9,34.8,25.9,34.8,37.1c0,3.7-2.5,5.9-7.4,5.9
		c-5.8,0-10.3-4.4-12.6-9.4l-17.2,8.5c2.2,6.4,9.7,20,28.6,20C558.7,114.9,569.8,103.8,569.8,88.3z"/>
	<path class="st12" d="M569.8,88.3c0-25.7-35-24.5-35-35.9c0-3.2,2.6-5.6,6.6-5.6c6.4,0,8.9,4.6,10.6,8.3l17-7.8
		c-2.2-6.4-9.1-19.4-27.1-19.4c-16.7,0-27.6,9.8-27.6,25c0,26.9,34.8,25.9,34.8,37.1c0,3.7-2.5,5.9-7.4,5.9
		c-5.8,0-10.3-4.4-12.6-9.4l-17.2,8.5c2.2,6.4,9.7,20,28.6,20C558.7,114.9,569.8,103.8,569.8,88.3z"/>
	<polygon class="st12" points="628,48 628,30 583,30 583,114 629,114 629,95 604,95 604,80 624,80 624,62 604,62 604,48 	"/>
	<polygon class="st12" points="628,48 628,30 583,30 583,114 629,114 629,95 604,95 604,80 624,80 624,62 604,62 604,48 	"/>
	<path class="st12" d="M688.8,77.7c7.7-4.2,11.6-12.8,11.6-22C700.4,39,690.8,30,671,30h-27v84h20V83h6.4l15,31h22.7
		C688.7,78,688.8,77.7,688.8,77.7z M670.3,66H664V47h5.4c7.4,0,10.1,3.8,10.1,9.3C679.4,62.1,676,66,670.3,66z"/>
	<path class="st12" d="M688.8,77.7c7.7-4.2,11.6-12.8,11.6-22C700.4,39,690.8,30,671,30h-27v84h20V83h6.4l15,31h22.7
		C688.7,78,688.8,77.7,688.8,77.7z M670.3,66H664V47h5.4c7.4,0,10.1,3.8,10.1,9.3C679.4,62.1,676,66,670.3,66z"/>
	<polygon class="st12" points="753.4,89.8 734.4,30 711.8,30 742.2,114 764.5,114 794.9,30 772.3,30 	"/>
	<polygon class="st12" points="753.4,89.8 734.4,30 711.8,30 742.2,114 764.5,114 794.9,30 772.3,30 	"/>
	<rect x="805" y="30" class="st12" width="21" height="84"/>
	<rect x="805" y="30" class="st12" width="21" height="84"/>
	<path class="st12" d="M884,95.7c-15.4,0-23.8-11.4-23.8-24.5c0-13.1,8.4-24.2,23.8-24.2c7.2,0,13.6,2.9,18,5.9l5.8-18
		c-6-4.1-14-7.1-24.5-7.1c-26.2,0-44.4,18.8-44.4,43.4c0,24.7,17.3,43.7,44.4,43.7c10.4,0,18.8-3,24.8-7.1l-5.8-18
		C897.9,92.9,891.2,95.7,884,95.7z"/>
	<path class="st12" d="M884,95.7c-15.4,0-23.8-11.4-23.8-24.5c0-13.1,8.4-24.2,23.8-24.2c7.2,0,13.6,2.9,18,5.9l5.8-18
		c-6-4.1-14-7.1-24.5-7.1c-26.2,0-44.4,18.8-44.4,43.4c0,24.7,17.3,43.7,44.4,43.7c10.4,0,18.8-3,24.8-7.1l-5.8-18
		C897.9,92.9,891.2,95.7,884,95.7z"/>
	<polygon class="st12" points="942,80 962,80 962,62 942,62 942,48 966,48 966,30 921,30 921,114 967,114 967,95 942,95 	"/>
	<polygon class="st12" points="942,80 962,80 962,62 942,62 942,48 966,48 966,30 921,30 921,114 967,114 967,95 942,95 	"/>
	<path class="st12" d="M999.2,52.4c0-3.2,2.6-5.6,6.6-5.6c6.4,0,8.9,4.6,10.6,8.3l17-7.8c-2.2-6.4-9.1-19.4-27.1-19.4
		c-16.7,0-27.6,9.8-27.6,25c0,26.9,34.8,25.9,34.8,37.1c0,3.7-2.5,5.9-7.4,5.9c-5.8,0-10.3-4.4-12.6-9.4l-17.2,8.5
		c2.2,6.4,9.7,20,28.6,20c18.4,0,29.4-11.2,29.4-26.6C1034.3,62.6,999.2,63.8,999.2,52.4z"/>
	<path class="st12" d="M999.2,52.4c0-3.2,2.6-5.6,6.6-5.6c6.4,0,8.9,4.6,10.6,8.3l17-7.8c-2.2-6.4-9.1-19.4-27.1-19.4
		c-16.7,0-27.6,9.8-27.6,25c0,26.9,34.8,25.9,34.8,37.1c0,3.7-2.5,5.9-7.4,5.9c-5.8,0-10.3-4.4-12.6-9.4l-17.2,8.5
		c2.2,6.4,9.7,20,28.6,20c18.4,0,29.4-11.2,29.4-26.6C1034.3,62.6,999.2,63.8,999.2,52.4z"/>
</g>
</svg>
