<?xml version="1.0" encoding="utf-8"?>
<!-- Generator: Adobe Illustrator 19.1.0, SVG Export Plug-In . SVG Version: 6.00 Build 0)  -->
<!DOCTYPE svg PUBLIC "-//W3C//DTD SVG 1.1//EN" "http://www.w3.org/Graphics/SVG/1.1/DTD/svg11.dtd">
<svg version="1.1" id="Layer_1" xmlns="http://www.w3.org/2000/svg" xmlns:xlink="http://www.w3.org/1999/xlink" x="0px" y="0px"
	 width="1000px" height="100px" viewBox="0 0 1000 100" style="enable-background:new 0 0 1000 100;" xml:space="preserve">
<style type="text/css">
	.st0{fill:#333333;}
	.st1{fill:url(#SVGID_1_);}
	.st2{fill:url(#SVGID_2_);}
	.st3{fill:url(#SVGID_3_);}
	.st4{fill:url(#SVGID_4_);}
	.st5{fill:url(#SVGID_5_);}
	.st6{fill:url(#SVGID_6_);}
	.st7{fill:url(#SVGID_7_);}
	.st8{fill:url(#SVGID_8_);}
	.st9{fill:url(#SVGID_9_);}
	.st10{fill:url(#SVGID_10_);}
	.st11{fill:url(#SVGID_11_);}
	.st12{fill:url(#SVGID_12_);}
	.st13{fill:#FFFFFF;}
	.st14{fill:url(#SVGID_13_);}
	.st15{fill:url(#SVGID_14_);}
	.st16{fill:url(#SVGID_15_);}
	.st17{fill:url(#SVGID_16_);}
	.st18{fill:url(#SVGID_17_);}
	.st19{fill:url(#SVGID_18_);}
	.st20{fill:url(#SVGID_19_);}
	.st21{fill:url(#SVGID_20_);}
	.st22{fill:url(#SVGID_21_);}
	.st23{fill:url(#SVGID_22_);}
	.st24{fill:url(#SVGID_23_);}
	.st25{fill:url(#SVGID_24_);}
	.st26{fill:url(#SVGID_25_);}
	.st27{fill:url(#SVGID_26_);}
	.st28{fill:url(#SVGID_27_);}
	.st29{fill:url(#SVGID_28_);}
	.st30{fill:url(#SVGID_29_);}
	.st31{fill:url(#SVGID_30_);}
	.st32{fill:url(#SVGID_31_);}
	.st33{fill:url(#SVGID_32_);}
	.st34{fill:url(#SVGID_33_);}
	.st35{fill:url(#SVGID_34_);}
	.st36{fill:url(#SVGID_35_);}
	.st37{fill:url(#SVGID_36_);}
	.st38{fill:url(#SVGID_37_);}
	.st39{fill:url(#SVGID_38_);}
	.st40{fill:url(#SVGID_39_);}
	.st41{fill:url(#SVGID_40_);}
	.st42{fill:url(#SVGID_41_);}
	.st43{fill:url(#SVGID_42_);}
	.st44{fill:url(#SVGID_43_);}
	.st45{fill:url(#SVGID_44_);}
	.st46{fill:url(#SVGID_45_);}
	.st47{fill:url(#SVGID_46_);}
</style>
<g>
	<polygon class="st0" points="41.9,26.3 40.9,26.3 40.9,53.3 13.9,53.3 13.9,55.3 40.9,55.3 40.9,82.3 41.9,82.3 41.9,55.3 
		67.9,55.3 67.9,53.3 41.9,53.3 	"/>
	
		<linearGradient id="SVGID_1_" gradientUnits="userSpaceOnUse" x1="3304.0735" y1="12376.4971" x2="4061.4155" y2="11619.1543" gradientTransform="matrix(-1 0 0 -1 3904.2053 11872.0654)">
		<stop  offset="0" style="stop-color:#0D0D0D"/>
		<stop  offset="1" style="stop-color:#333333"/>
	</linearGradient>
	<polygon class="st1" points="41.9,26.3 40.9,26.3 40.9,53.3 13.9,53.3 13.9,55.3 40.9,55.3 40.9,82.3 41.9,82.3 41.9,55.3 
		67.9,55.3 67.9,53.3 41.9,53.3 	"/>
	<path class="st0" d="M102.4,72.3h25.8l5.9,18h20.1l-28.3-81h-21.1l-28.3,81h20.1L102.4,72.3z M115.3,30.3l7.7,26h-15.5L115.3,30.3z
		"/>
	
		<linearGradient id="SVGID_2_" gradientUnits="userSpaceOnUse" x1="3254.645" y1="12342.334" x2="4022.1436" y2="11574.835" gradientTransform="matrix(-1 0 0 -1 3904.2053 11872.0654)">
		<stop  offset="0" style="stop-color:#0D0D0D"/>
		<stop  offset="1" style="stop-color:#333333"/>
	</linearGradient>
	<path class="st2" d="M102.4,72.3h25.8l5.9,18h20.1l-28.3-81h-21.1l-28.3,81h20.1L102.4,72.3z M115.3,30.3l7.7,26h-15.5L115.3,30.3z
		"/>
	<path class="st0" d="M222.9,66.2c0-8.4-3.4-14.9-11.5-18.3c5.6-3.2,8.9-9.7,8.9-16.7c0-14-10-21.8-26.6-21.8h-28.9v81h29.8
		C210.4,90.3,222.9,82.8,222.9,66.2z M183.9,26.3h8.8c4.9,0,7.3,3,7.3,7.3c0,4.4-2.5,7.7-7,7.7h-9V26.3z M183.9,73.3v-16h10.3
		c5.3,0,8.1,3,8.1,7.9c0,4.7-2.9,8.1-8.2,8.1H183.9z"/>
	
		<linearGradient id="SVGID_3_" gradientUnits="userSpaceOnUse" x1="3226.696" y1="12312.7793" x2="3992.2498" y2="11547.2256" gradientTransform="matrix(-1 0 0 -1 3904.2053 11872.0654)">
		<stop  offset="0" style="stop-color:#0D0D0D"/>
		<stop  offset="1" style="stop-color:#333333"/>
	</linearGradient>
	<path class="st3" d="M222.9,66.2c0-8.4-3.4-14.9-11.5-18.3c5.6-3.2,8.9-9.7,8.9-16.7c0-14-10-21.8-26.6-21.8h-28.9v81h29.8
		C210.4,90.3,222.9,82.8,222.9,66.2z M183.9,26.3h8.8c4.9,0,7.3,3,7.3,7.3c0,4.4-2.5,7.7-7,7.7h-9V26.3z M183.9,73.3v-16h10.3
		c5.3,0,8.1,3,8.1,7.9c0,4.7-2.9,8.1-8.2,8.1H183.9z"/>
	<path class="st0" d="M274.4,92.5c25.9,0,43-18.5,43-42.6c0-23.8-17.1-42.4-43-42.4c-25.9,0-43,18.6-43,42.4
		C231.4,74,248.5,92.5,274.4,92.5z M274.4,26.2c13.1,0,22.1,10.2,22.1,23.7c0,13.8-9.1,23.9-22.1,23.9c-13,0-22.1-10.1-22.1-23.9
		C252.3,36.4,261.3,26.2,274.4,26.2z"/>
	
		<linearGradient id="SVGID_4_" gradientUnits="userSpaceOnUse" x1="3178.2588" y1="12273.6025" x2="3951.3801" y2="11500.4805" gradientTransform="matrix(-1 0 0 -1 3904.2053 11872.0654)">
		<stop  offset="0" style="stop-color:#0D0D0D"/>
		<stop  offset="1" style="stop-color:#333333"/>
	</linearGradient>
	<path class="st4" d="M274.4,92.5c25.9,0,43-18.5,43-42.6c0-23.8-17.1-42.4-43-42.4c-25.9,0-43,18.6-43,42.4
		C231.4,74,248.5,92.5,274.4,92.5z M274.4,26.2c13.1,0,22.1,10.2,22.1,23.7c0,13.8-9.1,23.9-22.1,23.9c-13,0-22.1-10.1-22.1-23.9
		C252.3,36.4,261.3,26.2,274.4,26.2z"/>
	<path class="st0" d="M363.9,92.4c21.7,0,34-13.8,34-33v-50h-20v50c0,9-4.9,14.5-13.9,14.5c-8.9,0-14.1-5.5-14.1-14.4V9.3h-20v50.2
		C329.9,79,341.9,92.4,363.9,92.4z"/>
	
		<linearGradient id="SVGID_5_" gradientUnits="userSpaceOnUse" x1="3139.6067" y1="12231.0273" x2="3909.3508" y2="11461.2832" gradientTransform="matrix(-1 0 0 -1 3904.2053 11872.0654)">
		<stop  offset="0" style="stop-color:#0D0D0D"/>
		<stop  offset="1" style="stop-color:#333333"/>
	</linearGradient>
	<path class="st5" d="M363.9,92.4c21.7,0,34-13.8,34-33v-50h-20v50c0,9-4.9,14.5-13.9,14.5c-8.9,0-14.1-5.5-14.1-14.4V9.3h-20v50.2
		C329.9,79,341.9,92.4,363.9,92.4z"/>
	<polygon class="st0" points="427.9,90.3 447.9,90.3 447.9,26.3 464.9,26.3 464.9,9.3 409.9,9.3 409.9,26.3 427.9,26.3 	"/>
	
		<linearGradient id="SVGID_6_" gradientUnits="userSpaceOnUse" x1="3106.0872" y1="12191.4824" x2="3868.5161" y2="11429.0537" gradientTransform="matrix(-1 0 0 -1 3904.2053 11872.0654)">
		<stop  offset="0" style="stop-color:#0D0D0D"/>
		<stop  offset="1" style="stop-color:#333333"/>
	</linearGradient>
	<polygon class="st6" points="427.9,90.3 447.9,90.3 447.9,26.3 464.9,26.3 464.9,9.3 409.9,9.3 409.9,26.3 427.9,26.3 	"/>
	<rect x="480.9" y="9.3" class="st0" width="1" height="81"/>
	
		<linearGradient id="SVGID_7_" gradientUnits="userSpaceOnUse" x1="3079.4368" y1="12165.6338" x2="3842.0938" y2="11402.9766" gradientTransform="matrix(-1 0 0 -1 3904.2053 11872.0654)">
		<stop  offset="0" style="stop-color:#0D0D0D"/>
		<stop  offset="1" style="stop-color:#333333"/>
	</linearGradient>
	<rect x="480.9" y="9.3" class="st7" width="1" height="81"/>
	<polygon class="st0" points="506.9,11.2 564.2,90.3 564.9,90.3 564.9,9.3 563.9,9.3 563.9,88.6 507,9.3 505.9,9.3 505.9,90.3 
		506.9,90.3 	"/>
	
		<linearGradient id="SVGID_8_" gradientUnits="userSpaceOnUse" x1="3050.6104" y1="12140.46" x2="3817.1704" y2="11373.8994" gradientTransform="matrix(-1 0 0 -1 3904.2053 11872.0654)">
		<stop  offset="0" style="stop-color:#0D0D0D"/>
		<stop  offset="1" style="stop-color:#333333"/>
	</linearGradient>
	<polygon class="st8" points="506.9,11.2 564.2,90.3 564.9,90.3 564.9,9.3 563.9,9.3 563.9,88.6 507,9.3 505.9,9.3 505.9,90.3 
		506.9,90.3 	"/>
	<path class="st0" d="M603.9,74.7V9.3h-1v65.4c0,8.8-3.2,15.8-13,15.8c-3.4,0-6.8-0.8-8.2-1.3l-0.2,1.3c1.1,0.4,4.5,1.2,8.4,1.2
		C600.4,91.7,603.9,84.4,603.9,74.7z"/>
	
		<linearGradient id="SVGID_9_" gradientUnits="userSpaceOnUse" x1="3016.6812" y1="12109.5654" x2="3786.8044" y2="11339.4424" gradientTransform="matrix(-1 0 0 -1 3904.2053 11872.0654)">
		<stop  offset="0" style="stop-color:#0D0D0D"/>
		<stop  offset="1" style="stop-color:#333333"/>
	</linearGradient>
	<path class="st9" d="M603.9,74.7V9.3h-1v65.4c0,8.8-3.2,15.8-13,15.8c-3.4,0-6.8-0.8-8.2-1.3l-0.2,1.3c1.1,0.4,4.5,1.2,8.4,1.2
		C600.4,91.7,603.9,84.4,603.9,74.7z"/>
	<path class="st0" d="M663.4,92.5c22.9,0,40.7-18.1,40.7-42.5S686.4,7.5,663.4,7.5c-22.9,0-40.7,18.1-40.7,42.5
		S640.5,92.5,663.4,92.5z M663.4,8.7C685.8,8.7,703,26.4,703,50s-17.2,41.3-39.6,41.3c-22.4,0-39.6-17.7-39.6-41.3
		S641.1,8.7,663.4,8.7z"/>
	
		<linearGradient id="SVGID_10_" gradientUnits="userSpaceOnUse" x1="2983.7449" y1="12079.0879" x2="3756.866" y2="11305.9668" gradientTransform="matrix(-1 0 0 -1 3904.2053 11872.0654)">
		<stop  offset="0" style="stop-color:#0D0D0D"/>
		<stop  offset="1" style="stop-color:#333333"/>
	</linearGradient>
	<path class="st10" d="M663.4,92.5c22.9,0,40.7-18.1,40.7-42.5S686.4,7.5,663.4,7.5c-22.9,0-40.7,18.1-40.7,42.5
		S640.5,92.5,663.4,92.5z M663.4,8.7C685.8,8.7,703,26.4,703,50s-17.2,41.3-39.6,41.3c-22.4,0-39.6-17.7-39.6-41.3
		S641.1,8.7,663.4,8.7z"/>
	<polygon class="st0" points="774.9,89.3 718,89.3 774.9,10.2 774.9,9.3 717.9,9.3 717.9,10.3 773.4,10.3 716.9,89.8 716.9,90.3 
		774.9,90.3 	"/>
	
		<linearGradient id="SVGID_11_" gradientUnits="userSpaceOnUse" x1="2944.1506" y1="12035.9189" x2="3710.3225" y2="11269.748" gradientTransform="matrix(-1 0 0 -1 3904.2053 11872.0654)">
		<stop  offset="0" style="stop-color:#0D0D0D"/>
		<stop  offset="1" style="stop-color:#333333"/>
	</linearGradient>
	<polygon class="st11" points="774.9,89.3 718,89.3 774.9,10.2 774.9,9.3 717.9,9.3 717.9,10.3 773.4,10.3 716.9,89.8 716.9,90.3 
		774.9,90.3 	"/>
	<rect x="793.9" y="9.3" class="st0" width="1" height="81"/>
	
		<linearGradient id="SVGID_12_" gradientUnits="userSpaceOnUse" x1="2920.792" y1="12011.2783" x2="3683.4326" y2="11248.6377" gradientTransform="matrix(-1 0 0 -1 3904.2053 11872.0654)">
		<stop  offset="0" style="stop-color:#0D0D0D"/>
		<stop  offset="1" style="stop-color:#333333"/>
	</linearGradient>
	<rect x="793.9" y="9.3" class="st12" width="1" height="81"/>
</g>
</svg>
