<?xml version="1.0" encoding="utf-8"?>
<!-- Generator: Adobe Illustrator 19.1.0, SVG Export Plug-In . SVG Version: 6.00 Build 0)  -->
<!DOCTYPE svg PUBLIC "-//W3C//DTD SVG 1.1//EN" "http://www.w3.org/Graphics/SVG/1.1/DTD/svg11.dtd">
<svg version="1.1" id="Layer_1" xmlns="http://www.w3.org/2000/svg" xmlns:xlink="http://www.w3.org/1999/xlink" x="0px" y="0px"
	 width="1000px" height="100px" viewBox="0 0 1000 100" style="enable-background:new 0 0 1000 100;" xml:space="preserve">
<style type="text/css">
	.st0{fill:#333333;}
	.st1{fill:url(#SVGID_1_);}
	.st2{fill:url(#SVGID_2_);}
	.st3{fill:url(#SVGID_3_);}
	.st4{fill:url(#SVGID_4_);}
	.st5{fill:url(#SVGID_5_);}
	.st6{fill:url(#SVGID_6_);}
	.st7{fill:url(#SVGID_7_);}
	.st8{fill:url(#SVGID_8_);}
	.st9{fill:url(#SVGID_9_);}
	.st10{fill:url(#SVGID_10_);}
	.st11{fill:url(#SVGID_11_);}
	.st12{fill:url(#SVGID_12_);}
	.st13{fill:#FFFFFF;}
	.st14{fill:url(#SVGID_13_);}
	.st15{fill:url(#SVGID_14_);}
	.st16{fill:url(#SVGID_15_);}
	.st17{fill:url(#SVGID_16_);}
	.st18{fill:url(#SVGID_17_);}
	.st19{fill:url(#SVGID_18_);}
	.st20{fill:url(#SVGID_19_);}
	.st21{fill:url(#SVGID_20_);}
	.st22{fill:url(#SVGID_21_);}
	.st23{fill:url(#SVGID_22_);}
	.st24{fill:url(#SVGID_23_);}
	.st25{fill:url(#SVGID_24_);}
	.st26{fill:url(#SVGID_25_);}
	.st27{fill:url(#SVGID_26_);}
	.st28{fill:url(#SVGID_27_);}
	.st29{fill:url(#SVGID_28_);}
	.st30{fill:url(#SVGID_29_);}
	.st31{fill:url(#SVGID_30_);}
	.st32{fill:url(#SVGID_31_);}
	.st33{fill:url(#SVGID_32_);}
	.st34{fill:url(#SVGID_33_);}
	.st35{fill:url(#SVGID_34_);}
	.st36{fill:url(#SVGID_35_);}
	.st37{fill:url(#SVGID_36_);}
	.st38{fill:url(#SVGID_37_);}
	.st39{fill:url(#SVGID_38_);}
	.st40{fill:url(#SVGID_39_);}
	.st41{fill:url(#SVGID_40_);}
	.st42{fill:url(#SVGID_41_);}
	.st43{fill:url(#SVGID_42_);}
	.st44{fill:url(#SVGID_43_);}
	.st45{fill:url(#SVGID_44_);}
	.st46{fill:url(#SVGID_45_);}
	.st47{fill:url(#SVGID_46_);}
</style>
<g>
	<polygon class="st0" points="40.9,25.9 39.9,25.9 39.9,53.9 13.9,53.9 13.9,54.9 39.9,54.9 39.9,82.9 40.9,82.9 40.9,54.9 
		67.9,54.9 67.9,53.9 40.9,53.9 	"/>
	
		<linearGradient id="SVGID_1_" gradientUnits="userSpaceOnUse" x1="3194.3716" y1="11034.3135" x2="3965.0005" y2="10263.6846" gradientTransform="matrix(-1 0 0 -1 3904.2053 10419.2949)">
		<stop  offset="0" style="stop-color:#0D0D0D"/>
		<stop  offset="1" style="stop-color:#333333"/>
	</linearGradient>
	<polygon class="st1" points="40.9,25.9 39.9,25.9 39.9,53.9 13.9,53.9 13.9,54.9 39.9,54.9 39.9,82.9 40.9,82.9 40.9,54.9 
		67.9,54.9 67.9,53.9 40.9,53.9 	"/>
	<polygon class="st0" points="102.9,90.9 104.9,90.9 104.9,9.9 129.9,9.9 129.9,8.9 77.9,8.9 77.9,9.9 102.9,9.9 	"/>
	
		<linearGradient id="SVGID_2_" gradientUnits="userSpaceOnUse" x1="3166.9856" y1="11015.1992" x2="3942.5847" y2="10239.6006" gradientTransform="matrix(-1 0 0 -1 3904.2053 10419.2949)">
		<stop  offset="0" style="stop-color:#0D0D0D"/>
		<stop  offset="1" style="stop-color:#333333"/>
	</linearGradient>
	<polygon class="st2" points="102.9,90.9 104.9,90.9 104.9,9.9 129.9,9.9 129.9,8.9 77.9,8.9 77.9,9.9 102.9,9.9 	"/>
	<polygon class="st0" points="201.9,90.9 202.9,90.9 202.9,8.9 201.9,8.9 201.9,47.9 146.9,47.9 146.9,8.9 145.9,8.9 145.9,90.9 
		146.9,90.9 146.9,48.9 201.9,48.9 	"/>
	
		<linearGradient id="SVGID_3_" gradientUnits="userSpaceOnUse" x1="3127.8174" y1="10971.3672" x2="3900.437" y2="10198.748" gradientTransform="matrix(-1 0 0 -1 3904.2053 10419.2949)">
		<stop  offset="0" style="stop-color:#0D0D0D"/>
		<stop  offset="1" style="stop-color:#333333"/>
	</linearGradient>
	<polygon class="st3" points="201.9,90.9 202.9,90.9 202.9,8.9 201.9,8.9 201.9,47.9 146.9,47.9 146.9,8.9 145.9,8.9 145.9,90.9 
		146.9,90.9 146.9,48.9 201.9,48.9 	"/>
	<polygon class="st0" points="261.9,9.9 261.9,8.9 226.9,8.9 226.9,90.9 263.9,90.9 263.9,89.9 228.9,89.9 228.9,48.9 258.9,48.9 
		258.9,47.9 228.9,47.9 228.9,9.9 	"/>
	
		<linearGradient id="SVGID_4_" gradientUnits="userSpaceOnUse" x1="3092.4302" y1="10935.7549" x2="3865.0308" y2="10163.1543" gradientTransform="matrix(-1 0 0 -1 3904.2053 10419.2949)">
		<stop  offset="0" style="stop-color:#0D0D0D"/>
		<stop  offset="1" style="stop-color:#333333"/>
	</linearGradient>
	<polygon class="st4" points="261.9,9.9 261.9,8.9 226.9,8.9 226.9,90.9 263.9,90.9 263.9,89.9 228.9,89.9 228.9,48.9 258.9,48.9 
		258.9,47.9 228.9,47.9 228.9,9.9 	"/>
	<polygon class="st0" points="367.4,90.9 388.7,8.9 367.3,8.9 354.9,66.7 340.5,8.9 322.5,8.9 308.1,66.7 295.7,8.9 274.2,8.9 
		295.5,90.9 318.2,90.9 331.5,39.4 344.7,90.9 	"/>
	
		<linearGradient id="SVGID_5_" gradientUnits="userSpaceOnUse" x1="3053.9575" y1="10898.7783" x2="3827.2751" y2="10125.46" gradientTransform="matrix(-1 0 0 -1 3904.2053 10419.2949)">
		<stop  offset="0" style="stop-color:#0D0D0D"/>
		<stop  offset="1" style="stop-color:#333333"/>
	</linearGradient>
	<polygon class="st5" points="367.4,90.9 388.7,8.9 367.3,8.9 354.9,66.7 340.5,8.9 322.5,8.9 308.1,66.7 295.7,8.9 274.2,8.9 
		295.5,90.9 318.2,90.9 331.5,39.4 344.7,90.9 	"/>
	<path class="st0" d="M438.1,7.5c-25.9,0-43,18.6-43,42.4c0,24.1,17.1,42.6,43,42.6c25.9,0,43-18.5,43-42.6
		C481.1,26.1,464,7.5,438.1,7.5z M438.1,73.8c-13,0-22.1-10.1-22.1-23.9c0-13.5,9-23.7,22.1-23.7c13.1,0,22.1,10.2,22.1,23.7
		C460.3,63.7,451.1,73.8,438.1,73.8z"/>
	
		<linearGradient id="SVGID_6_" gradientUnits="userSpaceOnUse" x1="2995.4265" y1="10839.9336" x2="3768.554" y2="10066.8057" gradientTransform="matrix(-1 0 0 -1 3904.2053 10419.2949)">
		<stop  offset="0" style="stop-color:#0D0D0D"/>
		<stop  offset="1" style="stop-color:#333333"/>
	</linearGradient>
	<path class="st6" d="M438.1,7.5c-25.9,0-43,18.6-43,42.4c0,24.1,17.1,42.6,43,42.6c25.9,0,43-18.5,43-42.6
		C481.1,26.1,464,7.5,438.1,7.5z M438.1,73.8c-13,0-22.1-10.1-22.1-23.9c0-13.5,9-23.7,22.1-23.7c13.1,0,22.1,10.2,22.1,23.7
		C460.3,63.7,451.1,73.8,438.1,73.8z"/>
	<path class="st0" d="M549.2,34.2c0-16.3-9.4-25.2-28.7-25.2h-26.7v82h20v-30h6.1l14.6,30h22.1c-18.6-35-18.8-35.1-18.8-35.1l0,0
		l0,0C545.4,51.7,549.2,43.2,549.2,34.2z M519.9,43.9h-6v-18h5c7.3,0,9.8,3.4,9.8,8.8C528.7,40.4,525.4,43.9,519.9,43.9z"/>
	
		<linearGradient id="SVGID_7_" gradientUnits="userSpaceOnUse" x1="2951.824" y1="10796.4316" x2="3724.9927" y2="10023.2637" gradientTransform="matrix(-1 0 0 -1 3904.2053 10419.2949)">
		<stop  offset="0" style="stop-color:#0D0D0D"/>
		<stop  offset="1" style="stop-color:#333333"/>
	</linearGradient>
	<path class="st7" d="M549.2,34.2c0-16.3-9.4-25.2-28.7-25.2h-26.7v82h20v-30h6.1l14.6,30h22.1c-18.6-35-18.8-35.1-18.8-35.1l0,0
		l0,0C545.4,51.7,549.2,43.2,549.2,34.2z M519.9,43.9h-6v-18h5c7.3,0,9.8,3.4,9.8,8.8C528.7,40.4,525.4,43.9,519.9,43.9z"/>
	<polygon class="st0" points="566.9,8.9 566.9,90.9 586.9,90.9 586.9,58 610.9,90.9 633.9,90.9 602.6,48.2 633.3,8.9 610.9,8.9 
		586.9,40.6 586.9,8.9 	"/>
	
		<linearGradient id="SVGID_8_" gradientUnits="userSpaceOnUse" x1="2913.8184" y1="10759.3613" x2="3687.9939" y2="9985.1855" gradientTransform="matrix(-1 0 0 -1 3904.2053 10419.2949)">
		<stop  offset="0" style="stop-color:#0D0D0D"/>
		<stop  offset="1" style="stop-color:#333333"/>
	</linearGradient>
	<polygon class="st8" points="566.9,8.9 566.9,90.9 586.9,90.9 586.9,58 610.9,90.9 633.9,90.9 602.6,48.2 633.3,8.9 610.9,8.9 
		586.9,40.6 586.9,8.9 	"/>
</g>
</svg>
